<svg width="18" height="18" viewBox="0 0 18 18" fill="none" xmlns="http://www.w3.org/2000/svg">
<path d="M8.99829 1.51062C5.68457 1.51062 2.99829 4.19711 2.99829 7.51061C2.99829 10.1109 4.68414 13.0696 6.95919 15.5266C7.03269 15.6053 7.09217 15.6668 7.17017 15.7373C7.81367 16.3141 8.48124 16.5181 8.99829 16.5106C9.00482 16.5106 9.01644 16.5106 9.02169 16.5106C9.55982 16.5106 10.3187 16.2683 11.0374 15.5498C13.2199 13.3673 14.9983 10.1491 14.9983 7.51061C14.9983 4.19711 12.312 1.51062 8.99829 1.51062ZM8.99829 3.01062C11.4836 3.01062 13.4983 5.02511 13.4983 7.51061C13.4983 9.6751 11.8875 12.5431 9.95919 14.4713C9.55292 14.8778 9.18954 15.0106 8.99829 15.0106C8.98239 15.0106 8.97106 15.0106 8.97489 15.0106C8.80434 15.0128 8.50667 14.9303 8.17794 14.6356C8.13444 14.5966 8.07939 14.5403 8.03739 14.4946C5.99679 12.2919 4.49829 9.63535 4.49829 7.51061C4.49829 5.02511 6.51302 3.01062 8.99829 3.01062ZM8.99829 5.26061C7.75562 5.26061 6.74829 6.26786 6.74829 7.51061C6.74829 8.75335 7.75562 9.7606 8.99829 9.7606C10.241 9.7606 11.2483 8.75335 11.2483 7.51061C11.2483 6.26786 10.241 5.26061 8.99829 5.26061ZM8.99829 6.76061C9.41252 6.76061 9.74829 7.09661 9.74829 7.51061C9.74829 7.92461 9.41252 8.2606 8.99829 8.2606C8.58406 8.2606 8.24829 7.92461 8.24829 7.51061C8.24829 7.09661 8.58406 6.76061 8.99829 6.76061Z" fill="#111827"/>
</svg>
