<svg width="22" height="22" viewBox="0 0 22 22" fill="none" xmlns="http://www.w3.org/2000/svg">
<path d="M6.87394 2.74152C4.08948 2.74152 1.83228 4.99835 1.83228 7.78319C1.83228 10.7019 3.49465 13.4555 6.24373 15.9764C7.18203 16.8362 8.19229 17.5906 9.19421 18.268C9.54538 18.5045 9.87383 18.7191 10.1683 18.8978C10.3477 19.0069 10.4661 19.0857 10.5406 19.127C10.8174 19.281 11.1804 19.281 11.4573 19.127C11.5318 19.0857 11.6501 19.0069 11.8296 18.8978C12.1241 18.7191 12.4525 18.5045 12.8037 18.268C13.8056 17.5906 14.8159 16.8362 15.7541 15.9764C18.5032 13.4555 20.1656 10.7019 20.1656 7.78319C20.1656 4.99835 17.9084 2.74152 15.1239 2.74152C13.5425 2.74152 11.9985 3.6032 11.0275 4.86086C10.0808 3.5812 8.54218 2.74152 6.87394 2.74152Z" fill="#9CA3AF"/>
</svg>
