<svg width="16" height="16" viewBox="0 0 16 16" fill="none" xmlns="http://www.w3.org/2000/svg">
<path d="M7.99862 1.30176C6.15768 1.30176 4.66528 2.79416 4.66528 4.63509C4.66528 6.47602 6.15768 7.96842 7.99862 7.96842C9.83955 7.96842 11.3319 6.47602 11.3319 4.63509C11.3319 2.79416 9.83955 1.30176 7.99862 1.30176ZM7.99862 2.63509C9.10322 2.63509 9.99862 3.53049 9.99862 4.63509C9.99862 5.73969 9.10322 6.63509 7.99862 6.63509C6.89402 6.63509 5.99862 5.73969 5.99862 4.63509C5.99862 3.53049 6.89402 2.63509 7.99862 2.63509ZM5.64448 8.84342C3.90162 9.31976 2.66528 10.8352 2.66528 12.6351V13.9684C2.66528 14.3366 2.96375 14.6351 3.33195 14.6351H12.6653C13.0335 14.6351 13.3319 14.3366 13.3319 13.9684V12.6351C13.3319 10.8352 12.0956 9.31976 10.3527 8.84342C10.2033 8.80256 10.0565 8.82142 9.91528 8.88509C9.30495 9.16016 8.65522 9.30176 7.99862 9.30176C7.34202 9.30176 6.69228 9.16016 6.08195 8.88509C5.94068 8.82142 5.79388 8.80256 5.64448 8.84342ZM5.91528 10.1768C6.58848 10.4314 7.27842 10.6351 7.99862 10.6351C8.71882 10.6351 9.40875 10.4314 10.0819 10.1768C11.2175 10.5208 11.9986 11.4794 11.9986 12.6351V13.3018H3.99862V12.6351C3.99862 11.4794 4.77968 10.5208 5.91528 10.1768Z" fill="#DAAE00"/>
</svg>
