<svg width="125" height="40" viewBox="0 0 125 40" fill="none" xmlns="http://www.w3.org/2000/svg">
<path d="M5.41004 5.79536C6.52677 1.62554 10.8107 -0.849021 14.9784 0.268279L34.2394 5.43189C38.4071 6.54919 40.8804 10.8353 39.7637 15.0051L34.6218 34.2046C33.5051 38.3745 29.2212 40.849 25.0535 39.7317L5.79241 34.5681C1.62471 33.4508 -0.848589 29.1647 0.268144 24.9949L5.41004 5.79536Z" fill="#DAAE00"/>
<path d="M11.2041 9.3644C13.2853 5.5829 18.0365 4.20544 21.8161 6.28776L30.5515 11.1005C34.3311 13.1828 35.7078 17.9364 33.6266 21.7179L28.922 30.2657C26.8407 34.0472 22.0896 35.4246 18.31 33.3423L9.57458 28.5296C5.79501 26.4473 4.41825 21.6937 6.49951 17.9122L11.2041 9.3644Z" fill="#1F2937"/>
<path d="M30.1212 21.5476C30.1212 26.162 26.3824 29.9027 21.7703 29.9027C17.1583 29.9027 13.4195 26.162 13.4195 21.5476C13.4195 16.9332 17.1583 13.1925 21.7703 13.1925C26.3824 13.1925 30.1212 16.9332 30.1212 21.5476ZM14.6592 21.5476C14.6592 25.477 17.843 28.6623 21.7703 28.6623C25.6977 28.6623 28.8814 25.477 28.8814 21.5476C28.8814 17.6183 25.6977 14.433 21.7703 14.433C17.843 14.433 14.6592 17.6183 14.6592 21.5476Z" fill="#DAAE00"/>
<path d="M27.5972 21.5476C27.5972 24.7674 24.9884 27.3775 21.7703 27.3775C18.5522 27.3775 15.9434 24.7674 15.9434 21.5476C15.9434 18.3279 18.5522 15.7178 21.7703 15.7178C24.9884 15.7178 27.5972 18.3279 27.5972 21.5476Z" fill="#DAAE00"/>
<path d="M17.7984 8.87885C17.554 9.05322 17.243 9.10542 16.9551 9.0204L13.1112 7.8854C12.1175 7.59199 12.2043 6.1562 13.2261 5.9847L20.3332 4.79183C21.3549 4.62034 21.9052 5.9492 21.0617 6.55098L17.7984 8.87885Z" fill="#F3F4F6"/>
<path d="M53.8567 16.4174V13.8985C54.1384 14.18 54.4639 14.4081 54.8331 14.5828C55.2704 14.7964 55.7853 14.9032 56.378 14.9032C57.097 14.9032 57.6702 14.7236 58.0977 14.3644C58.5252 14.0053 58.7973 13.5345 58.9139 12.952H55.2121V11.0009H58.8264C58.7195 10.4768 58.4718 10.0545 58.0831 9.73418C57.6654 9.39444 57.097 9.22456 56.378 9.22456C55.8047 9.22456 55.2898 9.3459 54.8331 9.58858C54.4445 9.81184 54.119 10.0691 53.8567 10.3603V7.72483C54.8186 7.24919 55.7707 7.01137 56.7132 7.01137C58.1609 7.01137 59.3219 7.4676 60.1964 8.38006C61.1 9.31193 61.5518 10.5302 61.5518 12.0347C61.5518 13.5587 61.066 14.8206 60.0944 15.8205C59.2394 16.7038 58.0831 17.1455 56.6257 17.1455C56.0331 17.1455 55.4744 17.063 54.9497 16.8979C54.6388 16.8009 54.2745 16.6407 53.8567 16.4174Z" fill="#1F2937"/>
<path d="M68.8995 9.35561H66.8299V16.9271H64.3086V9.35561H62.2391V7.21522H68.8995V9.35561Z" fill="#1F2937"/>
<path d="M70.0173 7.21522H72.5532V13.3306L76.1967 7.21522H78.7763V16.9271H76.2404V10.8117L72.5969 16.9271H70.0173V7.21522Z" fill="#1F2937"/>
<path d="M83.3411 7.21522V11.2194L86.4308 7.21522H89.5496L85.6875 11.8163L89.8994 16.9271H86.6348L83.3411 12.7191V16.9271H80.8198V7.21522H83.3411Z" fill="#1F2937"/>
<path d="M96.4626 7.21522V9.35561H93.4603V10.9718H96.3023V13.1122H93.4603V14.7867H96.4626V16.9271H90.939V7.21522H96.4626Z" fill="#1F2937"/>
<path d="M104.367 9.35561H102.297V16.9271H99.7759V9.35561H97.7064V7.21522H104.367V9.35561Z" fill="#1F2937"/>
<path d="M108.006 7.21522V11.2194L111.096 7.21522H114.214L110.352 11.8163L114.564 16.9271H111.3L108.006 12.7191V16.9271H105.485V7.21522H108.006Z" fill="#1F2937"/>
<path d="M122.304 16.9271L121.706 15.2963H118.179L117.524 16.9271H114.856L118.587 7.21522H121.342L125 16.9271H122.304ZM118.879 13.3743H121.036L119.943 10.2292L118.879 13.3743Z" fill="#1F2937"/>
<path d="M61.1291 31.8807V34.8656C60.245 35.1859 59.5163 35.3461 58.943 35.3461C57.4273 35.3461 56.174 34.8607 55.1829 33.89C54.7165 33.4241 54.3522 32.8805 54.0899 32.2593C53.8372 31.6283 53.7109 30.9925 53.7109 30.3518C53.7109 29.682 53.8421 29.0317 54.1044 28.4007C54.3765 27.7698 54.736 27.2262 55.1829 26.77C56.174 25.7604 57.3982 25.2557 58.8556 25.2557C59.5648 25.2557 60.3227 25.4207 61.1291 25.7507V28.7647C60.5559 28.0561 59.8223 27.7018 58.9284 27.7018C58.2386 27.7018 57.6556 27.9154 57.1796 28.3425C56.616 28.8667 56.3343 29.5316 56.3343 30.3373C56.3343 31.1041 56.5966 31.7351 57.1213 32.2301C57.5973 32.6767 58.1997 32.8999 58.9284 32.8999C59.7737 32.8999 60.5073 32.5602 61.1291 31.8807Z" fill="#1F2937"/>
<path d="M68.2539 25.4158V27.5562H65.2516V29.1724H68.0936V31.3128H65.2516V32.9873H68.2539V35.1277H62.7303V25.4158H68.2539Z" fill="#1F2937"/>
<path d="M69.8608 25.4158H72.3967V31.5312L76.0402 25.4158H78.6198V35.1277H76.0839V29.0123L72.4404 35.1277H69.8608V25.4158ZM75.5301 22.096L77.2207 22.7367C76.9875 23.3774 76.5891 23.8481 76.0256 24.1491C75.5689 24.4014 74.9471 24.5276 74.1601 24.5276C73.4023 24.5276 72.7902 24.4014 72.3238 24.1491C71.7603 23.8481 71.3619 23.3774 71.1287 22.7367L72.8193 22.096C72.9165 22.397 73.0719 22.6251 73.2857 22.7804C73.4994 22.9357 73.7958 23.0133 74.1747 23.0133C74.5439 23.0133 74.8402 22.9357 75.0637 22.7804C75.2775 22.6251 75.4329 22.397 75.5301 22.096Z" fill="#1F2937"/>
<path d="M81.6105 25.4158H89.1016V35.1277H86.5657V27.5417H84.1172V31.0799C84.1172 32.633 83.7772 33.7493 83.0971 34.4288C82.5238 34.9821 81.766 35.2587 80.8235 35.2587C80.4349 35.2587 80.0511 35.215 79.6722 35.1277V32.798C79.8762 32.8659 80.0705 32.8999 80.2551 32.8999C80.6049 32.8999 80.8867 32.8028 81.1004 32.6087C81.4405 32.2981 81.6105 31.6865 81.6105 30.7741V25.4158Z" fill="#1F2937"/>
<path d="M98.1192 31.8807V34.8656C97.2351 35.1859 96.5064 35.3461 95.9331 35.3461C94.4174 35.3461 93.1641 34.8607 92.173 33.89C91.7067 33.4241 91.3423 32.8805 91.08 32.2593C90.8274 31.6283 90.7011 30.9925 90.7011 30.3518C90.7011 29.682 90.8322 29.0317 91.0946 28.4007C91.3666 27.7698 91.7261 27.2262 92.173 26.77C93.1641 25.7604 94.3883 25.2557 95.8457 25.2557C96.555 25.2557 97.3128 25.4207 98.1192 25.7507V28.7647C97.546 28.0561 96.8124 27.7018 95.9186 27.7018C95.2287 27.7018 94.6458 27.9154 94.1697 28.3425C93.6061 28.8667 93.3244 29.5316 93.3244 30.3373C93.3244 31.1041 93.5867 31.7351 94.1114 32.2301C94.5875 32.6767 95.1899 32.8999 95.9186 32.8999C96.7639 32.8999 97.4974 32.5602 98.1192 31.8807Z" fill="#1F2937"/>
</svg>
