<svg width="22" height="22" viewBox="0 0 22 22" fill="none" xmlns="http://www.w3.org/2000/svg">
<path d="M10.999 1.79041C5.93634 1.79041 1.84947 5.89432 1.83233 10.9571C1.81519 16.0125 5.94055 20.1421 10.999 20.1521C16.0574 20.1622 20.1747 15.9767 20.1657 10.9571C20.1565 5.89432 16.0616 1.79041 10.999 1.79041ZM10.999 3.62374C15.0491 3.62374 18.3322 6.90723 18.3323 10.9571C18.3323 13.0196 17.4732 14.8786 16.1028 16.2114C15.4278 14.7511 13.9777 13.7071 12.3167 13.7071C11.9873 13.7071 10.0106 13.7071 9.68129 13.7071C8.0213 13.7071 6.57544 14.7383 5.90004 16.1995C4.52962 14.8666 3.66566 13.0196 3.66566 10.9571C3.66566 6.90723 6.94889 3.62374 10.999 3.62374ZM10.999 5.45707C8.9739 5.45707 7.33224 7.09882 7.33233 9.12373C7.33233 11.1486 8.9739 12.7904 10.999 12.7904C13.024 12.7904 14.6658 11.1486 14.6657 9.12373C14.6657 7.09882 13.024 5.45707 10.999 5.45707Z" fill="#9CA3AF"/>
</svg>
