<svg width="24" height="24" viewBox="0 0 24 24" fill="none" xmlns="http://www.w3.org/2000/svg">
<path d="M4.99854 2.99072C3.89394 2.99072 2.99854 3.88572 2.99854 4.99072V8.99072C2.99854 10.0957 3.89394 10.9907 4.99854 10.9907H8.99854C10.1035 10.9907 10.9985 10.0957 10.9985 8.99072V4.99072C10.9985 3.88572 10.1035 2.99072 8.99854 2.99072H4.99854ZM14.9985 2.99072C13.8935 2.99072 12.9985 3.88572 12.9985 4.99072V8.99072C12.9985 10.0957 13.8935 10.9907 14.9985 10.9907H18.9985C20.1035 10.9907 20.9985 10.0957 20.9985 8.99072V4.99072C20.9985 3.88572 20.1035 2.99072 18.9985 2.99072H14.9985ZM4.99854 4.99072H8.99854V8.99072H4.99854V4.99072ZM14.9985 4.99072H18.9985V8.99072H14.9985V4.99072ZM4.99854 12.9907C3.89394 12.9907 2.99854 13.8857 2.99854 14.9907V18.9907C2.99854 20.0957 3.89394 20.9907 4.99854 20.9907H8.99854C10.1035 20.9907 10.9985 20.0957 10.9985 18.9907V14.9907C10.9985 13.8857 10.1035 12.9907 8.99854 12.9907H4.99854ZM14.9985 12.9907C13.8935 12.9907 12.9985 13.8857 12.9985 14.9907V18.9907C12.9985 20.0957 13.8935 20.9907 14.9985 20.9907H18.9985C20.1035 20.9907 20.9985 20.0957 20.9985 18.9907V14.9907C20.9985 13.8857 20.1035 12.9907 18.9985 12.9907H14.9985ZM4.99854 14.9907H8.99854V18.9907H4.99854V14.9907ZM14.9985 14.9907H18.9985V18.9907H14.9985V14.9907Z" fill="#6B7280"/>
</svg>
