<svg width="24" height="24" viewBox="0 0 24 24" fill="none" xmlns="http://www.w3.org/2000/svg">
<path d="M4.99829 2.99073C3.89369 2.99073 2.99829 3.88573 2.99829 4.99073V8.99073C2.99829 10.0957 3.89369 10.9907 4.99829 10.9907H8.99829C10.1033 10.9907 10.9983 10.0957 10.9983 8.99073V4.99073C10.9983 3.88573 10.1033 2.99073 8.99829 2.99073H4.99829ZM14.9983 2.99073C13.8933 2.99073 12.9983 3.88573 12.9983 4.99073V8.99073C12.9983 10.0957 13.8933 10.9907 14.9983 10.9907H18.9983C20.1033 10.9907 20.9983 10.0957 20.9983 8.99073V4.99073C20.9983 3.88573 20.1033 2.99073 18.9983 2.99073H14.9983ZM4.99829 4.99073H8.99829V8.99073H4.99829V4.99073ZM14.9983 4.99073H18.9983V8.99073H14.9983V4.99073ZM4.99829 12.9907C3.89369 12.9907 2.99829 13.8857 2.99829 14.9907V18.9907C2.99829 20.0957 3.89369 20.9907 4.99829 20.9907H8.99829C10.1033 20.9907 10.9983 20.0957 10.9983 18.9907V14.9907C10.9983 13.8857 10.1033 12.9907 8.99829 12.9907H4.99829ZM14.9983 12.9907C13.8933 12.9907 12.9983 13.8857 12.9983 14.9907V18.9907C12.9983 20.0957 13.8933 20.9907 14.9983 20.9907H18.9983C20.1033 20.9907 20.9983 20.0957 20.9983 18.9907V14.9907C20.9983 13.8857 20.1033 12.9907 18.9983 12.9907H14.9983ZM4.99829 14.9907H8.99829V18.9907H4.99829V14.9907ZM14.9983 14.9907H18.9983V18.9907H14.9983V14.9907Z" fill="#9CA3AF"/>
</svg>
