<svg width="160" height="51" viewBox="0 0 160 51" fill="none" xmlns="http://www.w3.org/2000/svg">
<path d="M6.92485 7.38909C8.35427 2.07256 13.8376 -1.0825 19.1723 0.342056L43.8265 6.92566C49.1611 8.35022 52.327 13.8149 50.8975 19.1315L44.3159 43.6109C42.8865 48.9274 37.4031 52.0825 32.0685 50.6579L7.41429 44.0743C2.07963 42.6498 -1.08619 37.1851 0.343224 31.8685L6.92485 7.38909Z" fill="#FACC15"/>
<path d="M14.3412 11.9396C17.0052 7.1182 23.0867 5.36194 27.9245 8.0169L39.1059 14.1531C43.9438 16.8081 45.706 22.8689 43.042 27.6903L37.0202 38.5887C34.3562 43.4101 28.2747 45.1664 23.4368 42.5114L12.2555 36.3752C7.41761 33.7203 5.65536 27.6595 8.31938 22.8381L14.3412 11.9396Z" fill="#1F2937"/>
<path d="M38.5551 27.4732C38.5551 33.3566 33.7694 38.126 27.866 38.126C21.9626 38.126 17.1769 33.3566 17.1769 27.4732C17.1769 21.5899 21.9626 16.8205 27.866 16.8205C33.7694 16.8205 38.5551 21.5899 38.5551 27.4732ZM18.7638 27.4732C18.7638 32.4831 22.839 36.5445 27.866 36.5445C32.893 36.5445 36.9682 32.4831 36.9682 27.4732C36.9682 22.4633 32.893 18.402 27.866 18.402C22.839 18.402 18.7638 22.4633 18.7638 27.4732Z" fill="#FACC15"/>
<path d="M35.3244 27.4732C35.3244 31.5784 31.9852 34.9063 27.866 34.9063C23.7468 34.9063 20.4076 31.5784 20.4076 27.4732C20.4076 23.3681 23.7468 20.0402 27.866 20.0402C31.9852 20.0402 35.3244 23.3681 35.3244 27.4732Z" fill="#FACC15"/>
<path d="M22.782 11.3205C22.4691 11.5429 22.071 11.6094 21.7025 11.501L16.7824 10.0539C15.5105 9.67979 15.6215 7.84915 16.9294 7.6305L26.0264 6.10959C27.3343 5.89093 28.0387 7.58523 26.9589 8.3525L22.782 11.3205Z" fill="#F3F4F6"/>
<path d="M68.9365 20.9322V17.7206C69.2972 18.0795 69.7138 18.3703 70.1864 18.5931C70.7461 18.8654 71.4052 19.0015 72.1638 19.0015C73.0841 19.0015 73.8179 18.7726 74.3651 18.3146C74.9123 17.8567 75.2605 17.2564 75.4097 16.5139H70.6714V14.0262H75.2978C75.161 13.3579 74.8439 12.8195 74.3464 12.4111C73.8117 11.9779 73.0841 11.7613 72.1638 11.7613C71.4301 11.7613 70.7709 11.916 70.1864 12.2254C69.689 12.5101 69.2723 12.8381 68.9365 13.2094V9.84916C70.1678 9.24272 71.3865 8.9395 72.5929 8.9395C74.4459 8.9395 75.9321 9.52119 77.0514 10.6846C78.208 11.8727 78.7863 13.4259 78.7863 15.3443C78.7863 17.2874 78.1644 18.8963 76.9208 20.1711C75.8264 21.2973 74.3464 21.8605 72.4809 21.8605C71.7223 21.8605 71.0072 21.7553 70.3357 21.5449C69.9377 21.4211 69.4713 21.2169 68.9365 20.9322Z" fill="white"/>
<path d="M88.1913 11.9284H85.5423V21.582H82.3151V11.9284H79.6661V9.1994H88.1913V11.9284Z" fill="white"/>
<path d="M89.6222 9.1994H92.8681V16.9965L97.5318 9.1994H100.834V21.582H97.5878V13.7849L92.9241 21.582H89.6222V9.1994Z" fill="white"/>
<path d="M106.677 9.1994V14.3047L110.631 9.1994H114.623L109.68 15.0658L115.071 21.582H110.893L106.677 16.2168V21.582H103.449V9.1994H106.677Z" fill="white"/>
<path d="M123.472 9.1994V11.9284H119.629V13.9891H123.267V16.7181H119.629V18.853H123.472V21.582H116.402V9.1994H123.472Z" fill="white"/>
<path d="M133.589 11.9284H130.94V21.582H127.713V11.9284H125.064V9.1994H133.589V11.9284Z" fill="white"/>
<path d="M138.248 9.1994V14.3047L142.202 9.1994H146.194L141.251 15.0658L146.642 21.582H142.464L138.248 16.2168V21.582H135.02V9.1994H138.248Z" fill="white"/>
<path d="M156.549 21.582L155.784 19.5028H151.27L150.43 21.582H147.016L151.792 9.1994H155.318L160 21.582H156.549ZM152.165 17.0522H154.926L153.527 13.0423L152.165 17.0522Z" fill="white"/>
<path d="M78.2453 40.6479V44.4536C77.1135 44.862 76.1808 45.0663 75.4471 45.0663C73.507 45.0663 71.9027 44.4474 70.6341 43.2098C70.0372 42.6157 69.5708 41.9226 69.235 41.1306C68.9117 40.3261 68.75 39.5154 68.75 38.6986C68.75 37.8446 68.9179 37.0154 69.2537 36.2109C69.6019 35.4065 70.062 34.7134 70.6341 34.1317C71.9027 32.8445 73.4697 32.201 75.3351 32.201C76.243 32.201 77.213 32.4114 78.2453 32.8322V36.675C77.5115 35.7716 76.5726 35.3198 75.4284 35.3198C74.5454 35.3198 73.7992 35.5921 73.1898 36.1367C72.4685 36.805 72.1079 37.6528 72.1079 38.68C72.1079 39.6578 72.4436 40.4622 73.1152 41.0934C73.7246 41.6627 74.4957 41.9474 75.4284 41.9474C76.5104 41.9474 77.4493 41.5142 78.2453 40.6479Z" fill="white"/>
<path d="M87.365 32.4052V35.1342H83.5221V37.1949H87.1598V39.9239H83.5221V42.0588H87.365V44.7878H80.2948V32.4052H87.365Z" fill="white"/>
<path d="M89.4218 32.4052H92.6677V40.2023L97.3314 32.4052H100.633V44.7878H97.3874V36.9906L92.7237 44.7878H89.4218V32.4052ZM96.6785 28.1724L98.8424 28.9893C98.544 29.8061 98.0341 30.4064 97.3128 30.7901C96.7282 31.1118 95.9323 31.2727 94.9249 31.2727C93.9549 31.2727 93.1714 31.1118 92.5744 30.7901C91.8531 30.4064 91.3432 29.8061 91.0448 28.9893L93.2087 28.1724C93.3331 28.5561 93.5321 28.847 93.8057 29.045C94.0793 29.243 94.4586 29.342 94.9436 29.342C95.4162 29.342 95.7955 29.243 96.0815 29.045C96.3551 28.847 96.5541 28.5561 96.6785 28.1724Z" fill="white"/>
<path d="M104.461 32.4052H114.05V44.7878H110.804V35.1156H107.67V39.6268C107.67 41.607 107.235 43.0303 106.364 43.8967C105.63 44.6021 104.66 44.9549 103.454 44.9549C102.957 44.9549 102.465 44.8992 101.98 44.7878V41.8174C102.242 41.9041 102.49 41.9474 102.727 41.9474C103.174 41.9474 103.535 41.8236 103.809 41.5761C104.244 41.1801 104.461 40.4003 104.461 39.237V32.4052Z" fill="white"/>
<path d="M125.593 40.6479V44.4536C124.461 44.862 123.528 45.0663 122.794 45.0663C120.854 45.0663 119.25 44.4474 117.981 43.2098C117.385 42.6157 116.918 41.9226 116.582 41.1306C116.259 40.3261 116.097 39.5154 116.097 38.6986C116.097 37.8446 116.265 37.0154 116.601 36.2109C116.949 35.4065 117.409 34.7134 117.981 34.1317C119.25 32.8445 120.817 32.201 122.682 32.201C123.59 32.201 124.56 32.4114 125.593 32.8322V36.675C124.859 35.7716 123.92 35.3198 122.776 35.3198C121.893 35.3198 121.147 35.5921 120.537 36.1367C119.816 36.805 119.455 37.6528 119.455 38.68C119.455 39.6578 119.791 40.4622 120.463 41.0934C121.072 41.6627 121.843 41.9474 122.776 41.9474C123.858 41.9474 124.797 41.5142 125.593 40.6479Z" fill="white"/>
</svg>
