<svg width="20" height="20" viewBox="0 0 20 20" fill="none" xmlns="http://www.w3.org/2000/svg">
<path d="M7.5118 3.25537C5.9468 3.25537 4.64513 4.30955 4.28596 5.76371C4.1868 5.77038 2.5118 5.75537 2.5118 5.75537C2.0518 5.75537 1.67847 6.1287 1.67847 6.5887C1.67847 7.0487 2.0518 7.42204 2.5118 7.42204C2.5118 7.42204 4.15847 7.41454 4.2793 7.42204C4.6968 8.87287 5.9468 9.92204 7.5118 9.92204C9.0593 9.92204 10.3601 8.84622 10.736 7.41705L17.5118 7.42204C17.9718 7.42204 18.3451 7.0487 18.3451 6.5887C18.3451 6.1287 17.9718 5.75537 17.5118 5.75537L10.7468 5.75705C10.371 4.32788 9.0593 3.25537 7.5118 3.25537ZM13.3451 9.92204C11.7976 9.92204 10.4976 10.9887 10.1218 12.4179L2.5118 12.422C2.0518 12.422 1.67847 12.7954 1.67847 13.2554C1.67847 13.7154 2.0518 14.0887 2.5118 14.0887L10.1251 14.0904C10.501 15.5196 11.7976 16.5887 13.3451 16.5887C14.8926 16.5887 16.1885 15.5212 16.5643 14.0921L17.5118 14.0887C17.9718 14.0887 18.3451 13.7154 18.3451 13.2554C18.3451 12.7954 17.9718 12.422 17.5118 12.422L16.5718 12.4212C16.196 10.9921 14.8926 9.92204 13.3451 9.92204Z" fill="#6B7280"/>
</svg>
