<svg width="22" height="22" viewBox="0 0 22 22" fill="none" xmlns="http://www.w3.org/2000/svg">
<path d="M6.8737 2.74152C4.08923 2.74152 1.83203 4.99835 1.83203 7.78319C1.83203 10.7019 3.49441 13.4555 6.24349 15.9764C7.18179 16.8362 8.19205 17.5906 9.19397 18.268C9.54514 18.5045 9.87358 18.7191 10.168 18.8978C10.3475 19.0069 10.4658 19.0857 10.5404 19.127C10.8172 19.281 11.1802 19.281 11.457 19.127C11.5316 19.0857 11.6499 19.0069 11.8294 18.8978C12.1238 18.7191 12.4523 18.5045 12.8034 18.268C13.8053 17.5906 14.8156 16.8362 15.7539 15.9764C18.503 13.4555 20.1654 10.7019 20.1654 7.78319C20.1654 4.99835 17.9082 2.74152 15.1237 2.74152C13.5423 2.74152 11.9982 3.6032 11.0273 4.86086C10.0806 3.5812 8.54194 2.74152 6.8737 2.74152ZM6.8737 4.57485C7.98644 4.57485 9.02557 5.13953 9.6237 6.0067C9.68182 6.09103 10.1401 6.76478 10.2252 6.89495C10.5799 7.43853 11.3711 7.45504 11.7435 6.92337C11.8341 6.79412 12.311 6.1231 12.3737 6.03602C12.998 5.16335 14.0908 4.57485 15.1237 4.57485C16.8956 4.57485 18.332 6.01127 18.332 7.78319C18.332 10.0776 16.9007 12.394 14.4935 14.6014C13.6271 15.3952 12.7038 16.1194 11.7722 16.7491C11.4905 16.9398 11.2392 17.0883 10.9987 17.2359C10.7582 17.0883 10.5069 16.9398 10.2252 16.7491C9.29361 16.1194 8.37034 15.3952 7.50391 14.6014C5.09674 12.394 3.66536 10.0776 3.66536 7.78319C3.66536 6.01127 5.10178 4.57485 6.8737 4.57485Z" fill="#6B7280"/>
</svg>
