<svg width="14" height="15" viewBox="0 0 14 15" fill="none" xmlns="http://www.w3.org/2000/svg">
<path d="M7.01371 1.92413C6.68069 1.92402 6.3406 2.13122 6.13918 2.54364L4.90024 5.09438L2.0762 5.49519C1.16801 5.62154 0.873778 6.51252 1.52962 7.15302L3.57018 9.13927L3.09651 11.927C2.94053 12.8294 3.689 13.3749 4.49943 12.9473C4.81256 12.7816 6.42262 11.9474 7.01371 11.6354L9.52799 12.9473C10.3394 13.3749 11.0902 12.83 10.9309 11.927L10.439 9.13927L12.4796 7.15302C13.1385 6.51485 12.8595 5.6241 11.9512 5.49519L9.10898 5.09438L7.88824 2.54364C7.68711 2.13104 7.34674 1.92431 7.01371 1.92413Z" fill="#6B7280"/>
</svg>
