<svg width="22" height="22" viewBox="0 0 22 22" fill="none" xmlns="http://www.w3.org/2000/svg">
<path d="M10.9979 1.84668C6.94804 1.84668 3.66455 5.13018 3.66455 9.18001C3.66455 12.3581 5.72522 15.9743 8.50546 18.9773C8.5953 19.0736 8.66864 19.1488 8.76305 19.2349C9.55047 19.9398 10.3663 20.1892 10.9979 20.18C11.0061 20.18 11.0199 20.18 11.0263 20.18C11.6845 20.18 12.6121 19.8839 13.4903 19.0058C16.1578 16.3383 18.3312 12.4048 18.3312 9.18001C18.3312 5.13018 15.0477 1.84668 10.9979 1.84668ZM10.9979 6.43001C12.5168 6.43001 13.7479 7.66109 13.7479 9.18001C13.7479 10.6989 12.5168 11.93 10.9979 11.93C9.47896 11.93 8.24788 10.6989 8.24788 9.18001C8.24788 7.66109 9.47896 6.43001 10.9979 6.43001Z" fill="#2562EA"/>
</svg>
