<svg width="22" height="22" viewBox="0 0 22 22" fill="none" xmlns="http://www.w3.org/2000/svg">
<path d="M10.9984 1.84619C6.94853 1.84619 3.66504 5.12969 3.66504 9.17952C3.66504 12.3576 5.72571 15.9738 8.50595 18.9768C8.59579 19.0731 8.66912 19.1483 8.76354 19.2344C9.55096 19.9393 10.3668 20.1887 10.9984 20.1795C11.0066 20.1795 11.0204 20.1795 11.0268 20.1795C11.6849 20.1795 12.6126 19.8834 13.4908 19.0053C16.1583 16.3378 18.3317 12.4044 18.3317 9.17952C18.3317 5.12969 15.0482 1.84619 10.9984 1.84619ZM10.9984 6.42952C12.5173 6.42952 13.7484 7.66061 13.7484 9.17952C13.7484 10.6984 12.5173 11.9295 10.9984 11.9295C9.47944 11.9295 8.24836 10.6984 8.24836 9.17952C8.24836 7.66061 9.47944 6.42952 10.9984 6.42952Z" fill="#1F2937"/>
</svg>
