<svg width="36" height="36" viewBox="0 0 36 36" fill="none" xmlns="http://www.w3.org/2000/svg">
<path d="M17.9971 3.52148C24.3479 3.5215 29.4971 8.67064 29.4971 15.0215C29.4971 17.5553 28.6403 20.4045 27.2275 23.1758C25.817 25.9425 23.8677 28.6001 21.7217 30.7461C20.3701 32.0977 18.9768 32.5214 18.0439 32.5215H17.9902C17.1491 32.5337 16.0277 32.2224 14.8994 31.2959L14.6738 31.1025C14.5345 30.9752 14.4242 30.8629 14.2832 30.7119C9.76447 25.8305 6.49707 20.032 6.49707 15.0215C6.49707 8.67063 11.6462 3.52148 17.9971 3.52148ZM17.9971 10.0215C15.2354 10.0215 12.9971 12.2598 12.9971 15.0215C12.9971 17.7831 15.2354 20.0215 17.9971 20.0215C20.7587 20.0215 22.9971 17.7831 22.9971 15.0215C22.9971 12.2599 20.7587 10.0215 17.9971 10.0215Z" fill="#059669" stroke="white"/>
</svg>
