<svg width="22" height="22" viewBox="0 0 22 22" fill="none" xmlns="http://www.w3.org/2000/svg">
<path opacity="0.986784" d="M15.5814 1.79037C15.3385 1.79037 15.0946 1.87655 14.9223 2.04796C13.5473 3.42296 13.5473 3.42296 13.089 3.8813L6.6723 10.298C6.50089 10.4703 6.41471 10.7141 6.41471 10.957V14.6237C6.41471 15.1297 6.82538 15.5404 7.33138 15.5404C7.78971 15.5404 10.5397 15.5404 10.998 15.5404C11.241 15.5404 11.4848 15.4542 11.6571 15.2828L18.0738 8.86612C18.5321 8.40779 18.5321 8.40779 19.9071 7.03279C20.0785 6.86045 20.1647 6.61663 20.1647 6.37371C20.1647 4.87404 19.7825 3.80247 18.9905 2.99305C18.1902 2.17722 17.1223 1.79037 15.5814 1.79037ZM6.41471 2.70704C4.3898 2.70704 2.74805 4.34879 2.74805 6.37371V15.5404C2.74805 17.5653 4.3898 19.207 6.41471 19.207H15.5814C17.6063 19.207 19.248 17.5653 19.248 15.5404V11.8737C19.248 11.3677 18.8374 10.957 18.3314 10.957C17.8254 10.957 17.4147 11.3677 17.4147 11.8737V15.5404C17.4147 16.5533 16.5943 17.3737 15.5814 17.3737H6.41471C5.4018 17.3737 4.58138 16.5533 4.58138 15.5404V6.37371C4.58138 5.36079 5.4018 4.54037 6.41471 4.54037H10.0814C10.5874 4.54037 10.998 4.12971 10.998 3.62371C10.998 3.11771 10.5874 2.70704 10.0814 2.70704H6.41471ZM15.9545 3.64111C16.7813 3.68969 17.3047 3.87853 17.6723 4.25436C18.0481 4.63753 18.2645 5.21597 18.3149 6.02722C17.8666 6.47547 17.5889 6.7413 17.4184 6.91272C16.6915 6.18672 15.7693 5.27277 15.0433 4.54586C15.2147 4.37444 15.5062 4.08936 15.9545 3.64111ZM13.7499 5.84757L16.1195 8.21073L10.5965 13.707C10.0172 13.707 9.0923 13.707 8.24805 13.707V11.3585L13.7499 5.84757Z" fill="#677383"/>
</svg>
