<svg width="28" height="28" viewBox="0 0 28 28" fill="none" xmlns="http://www.w3.org/2000/svg">
<path d="M13.9974 2.27881C10.7758 2.27881 8.16406 4.89051 8.16406 8.11214C8.16406 11.3338 10.7758 13.9455 13.9974 13.9455C17.219 13.9455 19.8307 11.3338 19.8307 8.11214C19.8307 4.89051 17.219 2.27881 13.9974 2.27881ZM13.9974 4.61214C15.9304 4.61214 17.4974 6.17909 17.4974 8.11214C17.4974 10.0452 15.9304 11.6121 13.9974 11.6121C12.0643 11.6121 10.4974 10.0452 10.4974 8.11214C10.4974 6.17909 12.0643 4.61214 13.9974 4.61214ZM9.87766 15.4767C6.82765 16.3103 4.66406 18.9624 4.66406 22.1121V24.4455C4.66406 25.0898 5.18638 25.6121 5.83073 25.6121H22.1641C22.8084 25.6121 23.3307 25.0898 23.3307 24.4455V22.1121C23.3307 18.9624 21.1671 16.3103 18.1171 15.4767C17.8557 15.4052 17.5988 15.4382 17.3516 15.5496C16.2835 16.031 15.1464 16.2788 13.9974 16.2788C12.8483 16.2788 11.7113 16.031 10.6432 15.5496C10.396 15.4382 10.1391 15.4052 9.87766 15.4767ZM10.3516 17.8101C11.5297 18.2556 12.737 18.6121 13.9974 18.6121C15.2577 18.6121 16.4651 18.2556 17.6432 17.8101C19.6305 18.4121 20.9974 20.0896 20.9974 22.1121V23.2788H6.9974V22.1121C6.9974 20.0896 8.36426 18.4121 10.3516 17.8101Z" fill="#EAB308"/>
</svg>
