<svg width="28" height="28" viewBox="0 0 28 28" fill="none" xmlns="http://www.w3.org/2000/svg">
<path d="M13.9974 2.2787C10.7758 2.2787 8.16406 4.8904 8.16406 8.11203C8.16406 11.3337 10.7758 13.9454 13.9974 13.9454C17.219 13.9454 19.8307 11.3337 19.8307 8.11203C19.8307 4.8904 17.219 2.2787 13.9974 2.2787ZM9.87766 15.4766C6.82765 16.3102 4.66406 18.9623 4.66406 22.112V24.4454C4.66406 25.0897 5.18638 25.612 5.83073 25.612H22.1641C22.8084 25.612 23.3307 25.0897 23.3307 24.4454V22.112C23.3307 18.9623 21.1671 16.3102 18.1171 15.4766C17.8557 15.4051 17.5988 15.4381 17.3516 15.5495C16.2835 16.0309 15.1464 16.2787 13.9974 16.2787C12.8483 16.2787 11.7113 16.0309 10.6432 15.5495C10.396 15.4381 10.1391 15.4051 9.87766 15.4766Z" fill="#EAB308"/>
</svg>
