<svg width="22" height="22" viewBox="0 0 22 22" fill="none" xmlns="http://www.w3.org/2000/svg">
<path d="M11.0124 1.79041C5.94981 1.79041 1.8457 5.89432 1.8457 10.9571C1.8457 16.0198 5.94981 20.1237 11.0124 20.1237C16.0751 20.1237 20.179 16.0198 20.179 10.9571C20.179 5.89432 16.0751 1.79041 11.0124 1.79041ZM11.0124 3.62374C15.0622 3.62374 18.3457 6.90724 18.3457 10.9571C18.3457 15.0069 15.0622 18.2904 11.0124 18.2904C6.96226 18.2904 3.67904 15.0069 3.67904 10.9571C3.67904 6.90724 6.96226 3.62374 11.0124 3.62374ZM11.0124 6.37374C10.5064 6.37374 10.0957 6.7844 10.0957 7.2904V10.0404H7.34571C6.83943 10.0404 6.42904 10.4511 6.42904 10.9571C6.42904 11.4631 6.83943 11.8737 7.34571 11.8737H10.0957V14.6237C10.0957 15.1297 10.5064 15.5404 11.0124 15.5404C11.5184 15.5404 11.929 15.1297 11.929 14.6237V11.8737H14.679C15.185 11.8737 15.5957 11.4631 15.5957 10.9571C15.5957 10.4511 15.185 10.0404 14.679 10.0404H11.929V7.2904C11.929 6.7844 11.5184 6.37374 11.0124 6.37374Z" fill="#6B7280"/>
</svg>
