<svg width="28" height="28" viewBox="0 0 28 28" fill="none" xmlns="http://www.w3.org/2000/svg">
<path d="M6.98828 3.41797C6.54611 3.41797 6.12844 3.67932 5.93127 4.07365L3.59794 8.74032C3.55594 8.82432 3.48828 9.15214 3.48828 9.25131C3.48828 10.418 4.08913 11.3385 4.64679 11.846L4.65495 22.0847C4.01095 22.0847 3.48828 22.6073 3.48828 23.2513C3.48828 23.8953 4.01095 24.418 4.65495 24.418H23.3216C23.9656 24.418 24.4883 23.8953 24.4883 23.2513C24.4883 22.6073 23.9656 22.0847 23.3216 22.0847L23.3099 11.8716C23.8664 11.3641 24.4883 10.418 24.4883 9.25131C24.4883 9.15214 24.4206 8.82432 24.3786 8.74032L22.0453 4.07365C21.8481 3.67932 21.4304 3.41797 20.9883 3.41797H6.98828ZM7.71745 5.75131H20.2591L22.1608 9.5068C22.085 9.92797 21.5739 10.418 20.9883 10.418C20.3443 10.418 19.8216 9.89531 19.8216 9.25131C19.8216 8.60731 19.2989 8.08464 18.6549 8.08464C18.3329 8.08464 18.0273 8.20131 17.8161 8.41248C17.605 8.62365 17.4883 8.92931 17.4883 9.25131C17.4883 9.89531 16.9656 10.418 16.3216 10.418C15.6776 10.418 15.1549 9.89531 15.1549 9.25131C15.1549 8.60731 14.6323 8.08464 13.9883 8.08464C13.6663 8.08464 13.3606 8.20131 13.1495 8.41248C12.9383 8.62365 12.8216 8.92931 12.8216 9.25131C12.8216 9.89531 12.2989 10.418 11.6549 10.418C11.0109 10.418 10.4883 9.89531 10.4883 9.25131C10.4883 8.60731 9.96561 8.08464 9.32161 8.08464C8.99961 8.08464 8.69395 8.20131 8.48279 8.41248C8.27162 8.62365 8.15495 8.92931 8.15495 9.25131C8.15495 9.89531 7.63228 10.418 6.98828 10.418C6.40261 10.418 5.92778 10.04 5.84611 9.47647L7.71745 5.75131ZM9.31926 11.8436C9.9411 12.4095 10.7473 12.7513 11.6549 12.7513C12.5626 12.7513 13.3594 12.4328 13.9813 11.8658C14.6031 12.4328 15.4139 12.7513 16.3216 12.7513C17.2293 12.7513 18.0355 12.413 18.6573 11.8472C19.2803 12.413 20.0806 12.7513 20.9883 12.7513V22.0847H6.98828V12.7513C7.89595 12.7513 8.69743 12.4095 9.31926 11.8436ZM10.4883 13.918C9.84428 13.918 9.32161 14.4406 9.32161 15.0847V18.5847C9.32161 19.2287 9.84428 19.7513 10.4883 19.7513H17.4883C18.1323 19.7513 18.6549 19.2287 18.6549 18.5847V15.0847C18.6549 14.4406 18.1323 13.918 17.4883 13.918C16.8443 13.918 16.3216 14.4406 16.3216 15.0847V17.418H11.6549V15.0847C11.6549 14.4406 11.1323 13.918 10.4883 13.918Z" fill="#EAB308"/>
</svg>
