<svg width="28" height="29" viewBox="0 0 28 29" fill="none" xmlns="http://www.w3.org/2000/svg">
<path d="M13.9987 2.77881C7.5552 2.77881 2.33203 8.00198 2.33203 14.4455C2.33203 20.889 7.5552 26.1121 13.9987 26.1121C20.4422 26.1121 25.6654 20.889 25.6654 14.4455C25.6654 8.00198 20.4422 2.77881 13.9987 2.77881ZM13.9987 5.11214C19.153 5.11214 23.332 9.29114 23.332 14.4455C23.332 19.5998 19.153 23.7788 13.9987 23.7788C8.84436 23.7788 4.66536 19.5998 4.66536 14.4455C4.66536 9.29114 8.84436 5.11214 13.9987 5.11214ZM10.4987 9.77881C10.2 9.77881 9.88854 9.87915 9.65987 10.1066C9.20487 10.5628 9.20487 11.3281 9.65987 11.7843L12.321 14.4455L9.65987 17.1066C9.20487 17.5628 9.20487 18.3281 9.65987 18.7843C10.116 19.2393 10.8814 19.2393 11.3375 18.7843L13.9987 16.1231L16.6599 18.7843C17.116 19.2393 17.8814 19.2393 18.3375 18.7843C18.7925 18.3281 18.7925 17.5628 18.3375 17.1066L15.6764 14.4455L18.3375 11.7843C18.7925 11.3281 18.7925 10.5628 18.3375 10.1066C18.1089 9.87915 17.7974 9.77881 17.4987 9.77881C17.2 9.77881 16.8885 9.87915 16.6599 10.1066L13.9987 12.7678L11.3375 10.1066C11.1089 9.87915 10.7974 9.77881 10.4987 9.77881Z" fill="#6B7280"/>
</svg>
