<svg width="28" height="28" viewBox="0 0 28 28" fill="none" xmlns="http://www.w3.org/2000/svg">
<path d="M13.9987 2.27881C7.5552 2.27881 2.33203 7.50198 2.33203 13.9455C2.33203 20.389 7.5552 25.6121 13.9987 25.6121C20.4422 25.6121 25.6654 20.389 25.6654 13.9455C25.6654 7.50198 20.4422 2.27881 13.9987 2.27881ZM13.9987 4.61214C19.153 4.61214 23.332 8.79114 23.332 13.9455C23.332 19.0998 19.153 23.2788 13.9987 23.2788C8.84436 23.2788 4.66536 19.0998 4.66536 13.9455C4.66536 8.79114 8.84436 4.61214 13.9987 4.61214ZM10.4987 9.27881C10.2 9.27881 9.88854 9.37915 9.65987 9.60665C9.20487 10.0628 9.20487 10.8281 9.65987 11.2843L12.321 13.9455L9.65987 16.6066C9.20487 17.0628 9.20487 17.8281 9.65987 18.2843C10.116 18.7393 10.8814 18.7393 11.3375 18.2843L13.9987 15.6231L16.6599 18.2843C17.116 18.7393 17.8814 18.7393 18.3375 18.2843C18.7925 17.8281 18.7925 17.0628 18.3375 16.6066L15.6764 13.9455L18.3375 11.2843C18.7925 10.8281 18.7925 10.0628 18.3375 9.60665C18.1089 9.37915 17.7974 9.27881 17.4987 9.27881C17.2 9.27881 16.8885 9.37915 16.6599 9.60665L13.9987 12.2678L11.3375 9.60665C11.1089 9.37915 10.7974 9.27881 10.4987 9.27881Z" fill="#677383"/>
</svg>
