<svg width="27" height="26" viewBox="0 0 27 26" fill="none" xmlns="http://www.w3.org/2000/svg">
<g opacity="0.4">
<path d="M3.59798 2.16553C2.99998 2.16488 2.51573 2.65054 2.51465 3.24886C2.51357 3.84719 2.99998 4.33154 3.59798 4.33219C4.40832 4.33306 4.91314 4.7067 5.32481 5.38173C5.51981 5.70293 5.75814 6.49095 5.9683 7.58219C6.28464 9.23308 7.42324 14.9624 7.42324 14.9624C7.80891 16.8898 9.65707 18.4155 11.6212 18.4155H18.2902C20.2553 18.4155 22.1035 16.8898 22.4891 14.9624C22.4891 14.9624 24.1813 6.9128 24.1813 6.49886C24.1813 5.90053 23.696 5.41553 23.098 5.41553C22.7611 5.41553 7.93999 5.42484 7.69407 5.41553C7.63666 5.21717 7.46764 4.73086 7.22064 4.29839C6.46989 2.98464 5.25548 2.16737 3.59798 2.16553ZM10.6396 20.5822C9.74265 20.5822 9.01465 21.3098 9.01465 22.2072C9.01465 23.1046 9.74265 23.8322 10.6396 23.8322C11.5366 23.8322 12.2646 23.1046 12.2646 22.2072C12.2646 21.3098 11.5366 20.5822 10.6396 20.5822ZM19.3063 20.5822C18.4093 20.5822 17.6813 21.3098 17.6813 22.2072C17.6813 23.1046 18.4093 23.8322 19.3063 23.8322C20.2033 23.8322 20.9313 23.1046 20.9313 22.2072C20.9313 21.3098 20.2033 20.5822 19.3063 20.5822Z" fill="#6B7280"/>
</g>
</svg>
