<svg width="26" height="26" viewBox="0 0 26 26" fill="none" xmlns="http://www.w3.org/2000/svg">
<path d="M3.26534 2.16553C2.66734 2.16488 2.18309 2.65054 2.18201 3.24886C2.18093 3.84719 2.66734 4.33154 3.26534 4.33219C4.07568 4.33306 4.5805 4.7067 4.99217 5.38173C5.18717 5.70293 5.4255 6.49095 5.63566 7.58219C5.952 9.23308 7.0906 14.9624 7.0906 14.9624C7.47626 16.8898 9.32443 18.4155 11.2885 18.4155H17.9575C19.9227 18.4155 21.7708 16.8898 22.1565 14.9624C22.1565 14.9624 23.8487 6.9128 23.8487 6.49886C23.8487 5.90053 23.3633 5.41553 22.7653 5.41553C22.4284 5.41553 7.60735 5.42484 7.36143 5.41553C7.30401 5.21717 7.135 4.73086 6.888 4.29839C6.13725 2.98464 4.92284 2.16737 3.26534 2.16553ZM10.307 20.5822C9.41001 20.5822 8.68201 21.3098 8.68201 22.2072C8.68201 23.1046 9.41001 23.8322 10.307 23.8322C11.204 23.8322 11.932 23.1046 11.932 22.2072C11.932 21.3098 11.204 20.5822 10.307 20.5822ZM18.9737 20.5822C18.0767 20.5822 17.3487 21.3098 17.3487 22.2072C17.3487 23.1046 18.0767 23.8322 18.9737 23.8322C19.8707 23.8322 20.5987 23.1046 20.5987 22.2072C20.5987 21.3098 19.8707 20.5822 18.9737 20.5822Z" fill="#9CA3AF"/>
</svg>
