<svg width="26" height="26" viewBox="0 0 26 26" fill="none" xmlns="http://www.w3.org/2000/svg">
<path d="M8.12386 3.23999C4.83313 3.23999 2.16553 5.90716 2.16553 9.19834C2.16553 12.6477 4.13015 15.902 7.37907 18.8812C8.48797 19.8973 9.68191 20.7889 10.866 21.5895C11.281 21.869 11.6692 22.1225 12.0171 22.3338C12.2293 22.4627 12.3691 22.5559 12.4572 22.6046C12.7844 22.7866 13.2134 22.7866 13.5405 22.6046C13.6286 22.5559 13.7685 22.4627 13.9806 22.3338C14.3285 22.1225 14.7167 21.869 15.1317 21.5895C16.3158 20.7889 17.5098 19.8973 18.6187 18.8812C21.8676 15.902 23.8322 12.6477 23.8322 9.19834C23.8322 5.90716 21.1646 3.23999 17.8739 3.23999C16.0049 3.23999 14.1801 4.25834 13.0327 5.74467C11.9138 4.23234 10.0954 3.23999 8.12386 3.23999Z" fill="#9CA3AF"/>
</svg>
