<svg width="27" height="26" viewBox="0 0 27 26" fill="none" xmlns="http://www.w3.org/2000/svg">
<g opacity="0.4">
<path d="M8.79036 3.23999C5.49963 3.23999 2.83203 5.90716 2.83203 9.19834C2.83203 12.6477 4.79666 15.902 8.04557 18.8812C9.15447 19.8973 10.3484 20.7889 11.5325 21.5895C11.9475 21.869 12.3357 22.1225 12.6836 22.3338C12.8958 22.4627 13.0356 22.5559 13.1237 22.6046C13.4509 22.7866 13.8799 22.7866 14.207 22.6046C14.2951 22.5559 14.435 22.4627 14.6471 22.3338C14.995 22.1225 15.3832 21.869 15.7982 21.5895C16.9823 20.7889 18.1763 19.8973 19.2852 18.8812C22.5341 15.902 24.4987 12.6477 24.4987 9.19834C24.4987 5.90716 21.8311 3.23999 18.5404 3.23999C16.6714 3.23999 14.8466 4.25834 13.6992 5.74467C12.5803 4.23234 10.7619 3.23999 8.79036 3.23999Z" fill="#6B7280"/>
</g>
</svg>
