<svg width="26" height="26" viewBox="0 0 26 26" fill="none" xmlns="http://www.w3.org/2000/svg">
<path d="M12.9336 2.38071C11.8318 2.36771 10.7528 2.73171 9.98799 3.49763L2.47185 11.1817C2.14901 11.5121 2.06233 11.9877 2.26925 12.4015L3.25076 14.3645L3.21717 20.5601C3.21717 21.7854 4.19867 22.7604 5.41742 22.7604H8.87109C9.95117 22.7604 10.8341 21.8775 10.8341 20.7974V17.2148C10.8341 16.0892 11.7462 15.177 12.8718 15.177H13.1297C14.2553 15.177 15.1674 16.0892 15.1674 17.2148V20.7974C15.1674 21.8775 16.0503 22.7604 17.1304 22.7604H20.5841C21.8028 22.7604 22.7843 21.7789 22.7843 20.5601L22.7507 14.3645L23.7322 12.4015C23.9413 11.9845 23.859 11.4786 23.5296 11.1481C23.248 10.8665 16.6234 4.24189 15.9463 3.56481C15.1609 2.77939 14.0343 2.39262 12.9336 2.38071Z" fill="#EAB308"/>
</svg>
