<svg width="26" height="26" viewBox="0 0 26 26" fill="none" xmlns="http://www.w3.org/2000/svg">
<g opacity="0.4">
<path d="M12.9984 2.11597C7.01529 2.11597 2.18536 6.96605 2.1651 12.9493C2.14484 18.9239 7.02028 23.8043 12.9984 23.8162C18.9766 23.8281 23.8425 18.8816 23.8318 12.9493C23.8209 6.96605 18.9815 2.11597 12.9984 2.11597ZM12.9984 4.28263C17.7849 4.28263 21.665 8.16313 21.6651 12.9493C21.6651 15.3868 20.6498 17.5838 19.0302 19.1589C18.2325 17.4332 16.5187 16.1993 14.5557 16.1993C14.1664 16.1993 11.8303 16.1993 11.4411 16.1993C9.47934 16.1993 7.77059 17.418 6.97239 19.1449C5.35281 17.5697 4.33177 15.3868 4.33177 12.9493C4.33177 8.16313 8.21194 4.28263 12.9984 4.28263ZM12.9984 6.4493C10.6051 6.4493 8.66499 8.38954 8.6651 10.7826C8.6651 13.1757 10.6051 15.116 12.9984 15.116C15.3916 15.116 17.3319 13.1757 17.3318 10.7826C17.3318 8.38954 15.3916 6.4493 12.9984 6.4493Z" fill="#6B7280"/>
</g>
</svg>
