<svg width="26" height="26" viewBox="0 0 26 26" fill="none" xmlns="http://www.w3.org/2000/svg">
<path d="M12.9989 2.11597C7.01578 2.11597 2.18585 6.96605 2.16559 12.9493C2.14533 18.9239 7.02077 23.8043 12.9989 23.8162C18.9771 23.8281 23.843 18.8816 23.8323 12.9493C23.8214 6.96605 18.982 2.11597 12.9989 2.11597ZM12.9989 4.28263C17.7854 4.28263 21.6655 8.16313 21.6656 12.9493C21.6656 15.3868 20.6503 17.5838 19.0307 19.1589C18.2329 17.4332 16.5192 16.1993 14.5562 16.1993C14.1669 16.1993 11.8308 16.1993 11.4416 16.1993C9.47983 16.1993 7.77108 17.418 6.97288 19.1449C5.3533 17.5697 4.33226 15.3868 4.33226 12.9493C4.33226 8.16313 8.21243 4.28263 12.9989 4.28263ZM12.9989 6.4493C10.6056 6.4493 8.66548 8.38954 8.66559 10.7826C8.66559 13.1757 10.6056 15.116 12.9989 15.116C15.3921 15.116 17.3324 13.1757 17.3323 10.7826C17.3323 8.38954 15.3921 6.4493 12.9989 6.4493Z" fill="#9CA3AF"/>
</svg>
