<svg width="22" height="22" viewBox="0 0 22 22" fill="none" xmlns="http://www.w3.org/2000/svg">
<path d="M10.9917 2.68555C10.4857 2.68555 10.075 3.09621 10.075 3.60221V10.0189H3.65837C3.15237 10.0189 2.7417 10.4295 2.7417 10.9355C2.7417 11.4415 3.15237 11.8522 3.65837 11.8522H10.075V18.2689C10.075 18.7749 10.4857 19.1855 10.9917 19.1855C11.4977 19.1855 11.9084 18.7749 11.9084 18.2689V11.8522H18.325C18.831 11.8522 19.2417 11.4415 19.2417 10.9355C19.2417 10.4295 18.831 10.0189 18.325 10.0189H11.9084V3.60221C11.9084 3.09621 11.4977 2.68555 10.9917 2.68555Z" fill="#DAAE00"/>
</svg>
