<svg width="24" height="24" viewBox="0 0 24 24" fill="none" xmlns="http://www.w3.org/2000/svg">
<path d="M12.0156 1.99805C6.49283 1.99805 2.01562 6.47505 2.01562 11.998C2.01562 17.521 6.49283 21.998 12.0156 21.998C17.5386 21.998 22.0156 17.521 22.0156 11.998C22.0156 6.47505 17.5386 1.99805 12.0156 1.99805ZM12.0156 3.99805C16.4336 3.99805 20.0156 7.58005 20.0156 11.998C20.0156 16.416 16.4336 19.998 12.0156 19.998C7.59732 19.998 4.01562 16.416 4.01562 11.998C4.01562 7.58005 7.59732 3.99805 12.0156 3.99805ZM12.0156 6.99805C11.4636 6.99805 11.0156 7.44605 11.0156 7.99805V12.998C11.0156 13.55 11.4636 13.998 12.0156 13.998C12.5676 13.998 13.0156 13.55 13.0156 12.998V7.99805C13.0156 7.44605 12.5676 6.99805 12.0156 6.99805ZM12.0156 14.998C11.4636 14.998 11.0156 15.446 11.0156 15.998C11.0156 16.55 11.4636 16.998 12.0156 16.998C12.5676 16.998 13.0156 16.55 13.0156 15.998C13.0156 15.446 12.5676 14.998 12.0156 14.998Z" fill="#DC2626"/>
</svg>
