<svg width="24" height="24" viewBox="0 0 24 24" fill="none" xmlns="http://www.w3.org/2000/svg">
<path d="M12.0034 1.99805C10.9494 1.99805 9.90137 2.41204 9.09737 3.21704L3.22237 9.09204C1.61337 10.7 1.61337 13.2961 3.22237 14.9041L9.09737 20.7791C10.7054 22.3881 13.3014 22.3881 14.9094 20.7791L20.7844 14.9041C22.3934 13.2961 22.3934 10.7 20.7844 9.09204L14.9094 3.21704C14.1054 2.41204 13.0574 1.99805 12.0034 1.99805ZM12.0034 3.99805C12.5454 3.99805 13.0894 4.20905 13.5034 4.62305L19.3784 10.498C20.2054 11.325 20.2054 12.67 19.3784 13.498L13.5034 19.3731C12.6764 20.2001 11.3314 20.2001 10.5034 19.3731L4.62838 13.498C3.80138 12.671 3.80138 11.326 4.62838 10.498L10.5034 4.62305C10.9174 4.20905 11.4614 3.99805 12.0034 3.99805ZM12.0034 6.99805C11.4514 6.99805 11.0034 7.44605 11.0034 7.99805V12.998C11.0034 13.55 11.4514 13.998 12.0034 13.998C12.5554 13.998 13.0034 13.55 13.0034 12.998V7.99805C13.0034 7.44605 12.5554 6.99805 12.0034 6.99805ZM12.0034 14.998C11.4514 14.998 11.0034 15.4461 11.0034 15.9981C11.0034 16.5501 11.4514 16.9981 12.0034 16.9981C12.5554 16.9981 13.0034 16.5501 13.0034 15.9981C13.0034 15.4461 12.5554 14.998 12.0034 14.998Z" fill="#FFD328"/>
</svg>
