<svg width="14" height="15" viewBox="0 0 14 15" fill="none" xmlns="http://www.w3.org/2000/svg">
<path opacity="0.988987" d="M6.99935 1.6749C3.7776 1.6749 1.16602 4.28649 1.16602 7.50824C1.16602 10.73 3.7776 13.3416 6.99935 13.3416C10.2211 13.3416 12.8327 10.73 12.8327 7.50824C12.8327 4.28649 10.2211 1.6749 6.99935 1.6749ZM6.99935 2.84157C9.57652 2.84157 11.666 4.93107 11.666 7.50824C11.666 10.0854 9.57652 12.1749 6.99935 12.1749C4.42218 12.1749 2.33268 10.0854 2.33268 7.50824C2.33268 4.93107 4.42218 2.84157 6.99935 2.84157ZM6.99935 4.59157C6.67735 4.59157 6.41602 4.8529 6.41602 5.17491C6.41602 5.49691 6.67735 5.75824 6.99935 5.75824C7.32135 5.75824 7.58268 5.49691 7.58268 5.17491C7.58268 4.8529 7.32135 4.59157 6.99935 4.59157ZM6.41602 6.34157C6.09402 6.34157 5.83268 6.60291 5.83268 6.92491C5.83268 7.20608 6.04211 7.41607 6.30636 7.47207L5.96043 9.14859C5.8251 9.82584 6.30927 10.4249 6.99935 10.4249H7.58268C7.90468 10.4249 8.16602 10.1636 8.16602 9.84158C8.16602 9.51958 7.90468 9.25825 7.58268 9.25825H7.1271L7.5646 7.03457C7.63693 6.67349 7.36743 6.34157 6.99935 6.34157C6.92585 6.34157 6.51052 6.34157 6.41602 6.34157Z" fill="white"/>
</svg>
