<svg width="14" height="14" viewBox="0 0 14 14" fill="none" xmlns="http://www.w3.org/2000/svg">
<path opacity="0.988987" d="M6.99935 1.1749C3.7776 1.1749 1.16602 3.78649 1.16602 7.00824C1.16602 10.23 3.7776 12.8416 6.99935 12.8416C10.2211 12.8416 12.8327 10.23 12.8327 7.00824C12.8327 3.78649 10.2211 1.1749 6.99935 1.1749ZM6.99935 2.34157C9.57652 2.34157 11.666 4.43107 11.666 7.00824C11.666 9.58542 9.57652 11.6749 6.99935 11.6749C4.42218 11.6749 2.33268 9.58542 2.33268 7.00824C2.33268 4.43107 4.42218 2.34157 6.99935 2.34157ZM6.99935 4.09157C6.67735 4.09157 6.41602 4.3529 6.41602 4.67491C6.41602 4.99691 6.67735 5.25824 6.99935 5.25824C7.32135 5.25824 7.58268 4.99691 7.58268 4.67491C7.58268 4.3529 7.32135 4.09157 6.99935 4.09157ZM6.41602 5.84157C6.09402 5.84157 5.83268 6.10291 5.83268 6.42491C5.83268 6.70608 6.04211 6.91607 6.30636 6.97207L5.96043 8.64859C5.8251 9.32584 6.30927 9.92492 6.99935 9.92492H7.58268C7.90468 9.92492 8.16602 9.66358 8.16602 9.34158C8.16602 9.01958 7.90468 8.75825 7.58268 8.75825H7.1271L7.5646 6.53457C7.63693 6.17349 7.36743 5.84157 6.99935 5.84157C6.92585 5.84157 6.51052 5.84157 6.41602 5.84157Z" fill="white"/>
</svg>
