<svg width="24" height="24" viewBox="0 0 24 24" fill="none" xmlns="http://www.w3.org/2000/svg">
<g opacity="0.6">
<path d="M7.49902 2.99073C4.46142 2.99073 1.99902 5.45274 1.99902 8.49074C1.99902 11.6748 3.81252 14.6787 6.81152 17.4288C7.83512 18.3668 8.93723 19.1898 10.0302 19.9288C10.4133 20.1868 10.7716 20.4208 11.0928 20.6158C11.2886 20.7348 11.4177 20.8208 11.499 20.8658C11.801 21.0338 12.197 21.0338 12.499 20.8658C12.5803 20.8208 12.7094 20.7348 12.9052 20.6158C13.2264 20.4208 13.5847 20.1868 13.9678 19.9288C15.0608 19.1898 16.1629 18.3668 17.1865 17.4288C20.1855 14.6787 21.999 11.6748 21.999 8.49074C21.999 5.45274 19.5366 2.99073 16.499 2.99073C14.7738 2.99073 13.0894 3.93075 12.0302 5.30275C10.9974 3.90675 9.31893 2.99073 7.49902 2.99073Z" fill="#677383"/>
</g>
</svg>
