<svg width="24" height="25" viewBox="0 0 24 25" fill="none" xmlns="http://www.w3.org/2000/svg">
<g opacity="0.6">
<path d="M7.49902 3.49073C4.46142 3.49073 1.99902 5.95274 1.99902 8.99074C1.99902 12.1748 3.81252 15.1787 6.81152 17.9288C7.83512 18.8668 8.93723 19.6898 10.0302 20.4288C10.4133 20.6868 10.7716 20.9208 11.0928 21.1158C11.2886 21.2348 11.4177 21.3208 11.499 21.3658C11.801 21.5338 12.197 21.5338 12.499 21.3658C12.5803 21.3208 12.7094 21.2348 12.9052 21.1158C13.2264 20.9208 13.5847 20.6868 13.9678 20.4288C15.0608 19.6898 16.1629 18.8668 17.1865 17.9288C20.1855 15.1787 21.999 12.1748 21.999 8.99074C21.999 5.95274 19.5366 3.49073 16.499 3.49073C14.7738 3.49073 13.0894 4.43075 12.0302 5.80275C10.9974 4.40675 9.31893 3.49073 7.49902 3.49073Z" fill="#6B7280"/>
</g>
</svg>
