<svg width="20" height="20" viewBox="0 0 20 20" fill="none" xmlns="http://www.w3.org/2000/svg">
<path d="M6.24935 2.49228C3.71802 2.49228 1.66602 4.54395 1.66602 7.07562C1.66602 9.72896 3.17727 12.2323 5.67643 14.524C6.52943 15.3056 7.44785 15.9915 8.35868 16.6073C8.67793 16.8223 8.97651 17.0173 9.24418 17.1798C9.40735 17.279 9.51493 17.3506 9.58268 17.3881C9.83435 17.5281 10.1643 17.5281 10.416 17.3881C10.4838 17.3506 10.5913 17.279 10.7545 17.1798C11.0222 17.0173 11.3208 16.8223 11.64 16.6073C12.5508 15.9915 13.4693 15.3056 14.3223 14.524C16.8214 12.2323 18.3327 9.72896 18.3327 7.07562C18.3327 4.54395 16.2807 2.49228 13.7493 2.49228C12.3117 2.49228 10.908 3.27562 10.0253 4.41896C9.16468 3.25562 7.76593 2.49228 6.24935 2.49228Z" fill="#6B7280"/>
</svg>
