<svg width="20" height="20" viewBox="0 0 20 20" fill="none" xmlns="http://www.w3.org/2000/svg">
<path d="M9.9987 1.62772C9.07787 1.62772 8.33204 2.37355 8.33204 3.29438H4.16537C3.70536 3.29438 3.33203 3.66771 3.33203 4.12771C3.33203 4.58771 3.70536 4.96104 4.16537 4.96104H15.832C16.292 4.96104 16.6654 4.58771 16.6654 4.12771C16.6654 3.66771 16.292 3.29438 15.832 3.29438H11.6654C11.6654 2.37355 10.9195 1.62772 9.9987 1.62772ZM4.16537 6.6277V14.961C4.16537 16.786 5.66953 18.2685 7.4987 18.2685L12.5245 18.2943C14.3537 18.2943 15.832 16.7902 15.832 14.961V6.6277H4.16537ZM8.33204 9.12769C8.79204 9.12769 9.16537 9.50103 9.16537 9.96102V14.961C9.16537 15.421 8.79204 15.7943 8.33204 15.7943C7.87204 15.7943 7.4987 15.421 7.4987 14.961V9.96102C7.4987 9.50103 7.87204 9.12769 8.33204 9.12769ZM11.6654 9.12769C12.1254 9.12769 12.4987 9.50103 12.4987 9.96102V14.961C12.4987 15.421 12.1254 15.7943 11.6654 15.7943C11.2054 15.7943 10.832 15.421 10.832 14.961V9.96102C10.832 9.50103 11.2054 9.12769 11.6654 9.12769Z" fill="#6B7280"/>
</svg>
