<svg width="24" height="24" viewBox="0 0 24 24" fill="none" xmlns="http://www.w3.org/2000/svg">
<g opacity="0.6">
<path d="M11.9981 1.95325C10.8931 1.95325 9.99805 2.84824 9.99805 3.95324H4.99805C4.44605 3.95324 3.99805 4.40124 3.99805 4.95324C3.99805 5.50524 4.44605 5.95323 4.99805 5.95323H18.9981C19.5501 5.95323 19.9981 5.50524 19.9981 4.95324C19.9981 4.40124 19.5501 3.95324 18.9981 3.95324H13.9981C13.9981 2.84824 13.1031 1.95325 11.9981 1.95325ZM4.99805 7.95323V17.9532C4.99805 20.1432 6.80305 21.9222 8.99805 21.9222L15.0291 21.9532C17.2241 21.9532 18.9981 20.1482 18.9981 17.9532V7.95323H4.99805ZM9.99805 10.9532C10.5501 10.9532 10.9981 11.4012 10.9981 11.9532V17.9532C10.9981 18.5052 10.5501 18.9532 9.99805 18.9532C9.44605 18.9532 8.99805 18.5052 8.99805 17.9532V11.9532C8.99805 11.4012 9.44605 10.9532 9.99805 10.9532ZM13.9981 10.9532C14.5501 10.9532 14.9981 11.4012 14.9981 11.9532V17.9532C14.9981 18.5052 14.5501 18.9532 13.9981 18.9532C13.4461 18.9532 12.9981 18.5052 12.9981 17.9532V11.9532C12.9981 11.4012 13.4461 10.9532 13.9981 10.9532Z" fill="#6B7280"/>
</g>
</svg>
