<svg width="22" height="22" viewBox="0 0 22 22" fill="none" xmlns="http://www.w3.org/2000/svg">
<path d="M10.9979 1.7905C9.98497 1.7905 9.16456 2.61091 9.16456 3.62382H4.58122C4.07522 3.62382 3.66455 4.03449 3.66455 4.54049C3.66455 5.04649 4.07522 5.45715 4.58122 5.45715H17.4146C17.9206 5.45715 18.3312 5.04649 18.3312 4.54049C18.3312 4.03449 17.9206 3.62382 17.4146 3.62382H12.8312C12.8312 2.61091 12.0108 1.7905 10.9979 1.7905ZM4.58122 7.29048V16.4571C4.58122 18.4646 6.2358 20.0954 8.24789 20.0954L13.7763 20.1238C15.7884 20.1238 17.4146 18.4692 17.4146 16.4571V7.29048H4.58122ZM9.16456 10.0405C9.67056 10.0405 10.0812 10.4511 10.0812 10.9571V16.4571C10.0812 16.9631 9.67056 17.3738 9.16456 17.3738C8.65856 17.3738 8.24789 16.9631 8.24789 16.4571V10.9571C8.24789 10.4511 8.65856 10.0405 9.16456 10.0405ZM12.8312 10.0405C13.3372 10.0405 13.7479 10.4511 13.7479 10.9571V16.4571C13.7479 16.9631 13.3372 17.3738 12.8312 17.3738C12.3252 17.3738 11.9146 16.9631 11.9146 16.4571V10.9571C11.9146 10.4511 12.3252 10.0405 12.8312 10.0405Z" fill="#DAAE00"/>
</svg>
