<svg width="25" height="24" viewBox="0 0 25 24" fill="none" xmlns="http://www.w3.org/2000/svg">
<path d="M2.4766 1.99893C1.9243 1.99443 1.4811 2.44663 1.4766 2.99893C1.4721 3.55123 1.9241 3.99443 2.4766 3.99893C3.2142 4.00493 3.7654 4.51863 4.2578 5.43643C4.7389 6.33333 4.80579 7.03673 4.82039 7.12393L6.0078 14.7801C6.3715 16.6034 8.0999 17.9989 9.91409 17.9989H17.0391C18.8534 17.9989 20.5893 16.5905 20.9454 14.8114C20.9454 14.8114 22.4766 5.37063 22.4766 4.99893C22.4766 4.44663 22.0289 3.99893 21.4766 3.99893C21.1651 3.99893 7.0213 3.99433 5.7266 3.99893C4.9515 2.74203 3.8598 2.01013 2.4766 1.99893ZM8.97659 18.9989C8.1482 18.9989 7.47659 19.6705 7.47659 20.4989C7.47659 21.3273 8.14799 21.9989 8.97659 21.9989C9.80499 21.9989 10.4766 21.3273 10.4766 20.4989C10.4766 19.6705 9.80519 18.9989 8.97659 18.9989ZM17.9766 18.9989C17.1482 18.9989 16.4766 19.6705 16.4766 20.4989C16.4766 21.3273 17.148 21.9989 17.9766 21.9989C18.805 21.9989 19.4766 21.3273 19.4766 20.4989C19.4766 19.6705 18.8052 18.9989 17.9766 18.9989Z" fill="#1F2937"/>
</svg>
