<svg width="22" height="22" viewBox="0 0 22 22" fill="none" xmlns="http://www.w3.org/2000/svg">
<path d="M2.76286 1.83234C2.25686 1.83179 1.84711 2.24273 1.84619 2.749C1.84528 3.25528 2.25686 3.66512 2.76286 3.66567C3.44853 3.6664 3.87569 3.98256 4.22402 4.55374C4.38902 4.82553 4.59068 5.49231 4.76852 6.41567C5.03618 7.81258 5.99961 12.6605 5.99961 12.6605C6.32595 14.2913 7.88978 15.5823 9.5517 15.5823H15.1947C16.8575 15.5823 18.4213 14.2913 18.7477 12.6605C18.7477 12.6605 20.1795 5.84926 20.1795 5.499C20.1795 4.99273 19.7689 4.58234 19.2629 4.58234C18.9778 4.58234 6.43686 4.59022 6.22878 4.58234C6.1802 4.41449 6.03719 4.003 5.82819 3.63707C5.19294 2.52543 4.16536 1.8339 2.76286 1.83234ZM8.72119 17.4157C7.96219 17.4157 7.34619 18.0313 7.34619 18.7907C7.34619 19.55 7.96219 20.1657 8.72119 20.1657C9.48019 20.1657 10.0962 19.55 10.0962 18.7907C10.0962 18.0313 9.48019 17.4157 8.72119 17.4157ZM16.0545 17.4157C15.2955 17.4157 14.6795 18.0313 14.6795 18.7907C14.6795 19.55 15.2955 20.1657 16.0545 20.1657C16.8135 20.1657 17.4295 19.55 17.4295 18.7907C17.4295 18.0313 16.8135 17.4157 16.0545 17.4157Z" fill="#6B7280"/>
</svg>
