<svg width="18" height="19" viewBox="0 0 18 19" fill="none" xmlns="http://www.w3.org/2000/svg">
<path d="M8.99853 2.01062C5.68481 2.01062 2.99854 4.69711 2.99854 8.01061C2.99854 10.6109 4.68439 13.5696 6.95943 16.0266C7.03293 16.1053 7.09241 16.1668 7.17041 16.2373C7.81391 16.8141 8.48148 17.0181 8.99853 17.0106C9.00506 17.0106 9.01668 17.0106 9.02193 17.0106C9.56006 17.0106 10.3189 16.7683 11.0376 16.0498C13.2201 13.8673 14.9985 10.6491 14.9985 8.01061C14.9985 4.69711 12.3123 2.01062 8.99853 2.01062ZM8.99853 3.51062C11.4838 3.51062 13.4985 5.52511 13.4985 8.01061C13.4985 10.1751 11.8878 13.0431 9.95943 14.9713C9.55316 15.3778 9.18978 15.5106 8.99853 15.5106C8.98263 15.5106 8.97131 15.5106 8.97513 15.5106C8.80458 15.5128 8.50691 15.4303 8.17818 15.1356C8.13468 15.0966 8.07963 15.0403 8.03763 14.9946C5.99703 12.7919 4.49853 10.1354 4.49853 8.01061C4.49853 5.52511 6.51326 3.51062 8.99853 3.51062ZM8.99853 5.76061C7.75586 5.76061 6.74853 6.76786 6.74853 8.01061C6.74853 9.25335 7.75586 10.2606 8.99853 10.2606C10.2412 10.2606 11.2485 9.25335 11.2485 8.01061C11.2485 6.76786 10.2412 5.76061 8.99853 5.76061ZM8.99853 7.26061C9.41276 7.26061 9.74853 7.59661 9.74853 8.01061C9.74853 8.42461 9.41276 8.7606 8.99853 8.7606C8.58431 8.7606 8.24853 8.42461 8.24853 8.01061C8.24853 7.59661 8.58431 7.26061 8.99853 7.26061Z" fill="#1F2937"/>
</svg>
