<svg width="22" height="22" viewBox="0 0 22 22" fill="none" xmlns="http://www.w3.org/2000/svg">
<path d="M6.87419 2.74152C4.08972 2.74152 1.83252 4.99835 1.83252 7.78319C1.83252 10.7019 3.49489 13.4555 6.24398 15.9764C7.18228 16.8362 8.19254 17.5906 9.19445 18.268C9.54563 18.5045 9.87407 18.7191 10.1685 18.8978C10.348 19.0069 10.4663 19.0857 10.5409 19.127C10.8177 19.281 11.1807 19.281 11.4575 19.127C11.532 19.0857 11.6504 19.0069 11.8299 18.8978C12.1243 18.7191 12.4527 18.5045 12.8039 18.268C13.8058 17.5906 14.8161 16.8362 15.7544 15.9764C18.5035 13.4555 20.1659 10.7019 20.1659 7.78319C20.1659 4.99835 17.9087 2.74152 15.1242 2.74152C13.5428 2.74152 11.9987 3.6032 11.0278 4.86086C10.0811 3.5812 8.54243 2.74152 6.87419 2.74152Z" fill="#6B7280"/>
</svg>
