<svg width="1240" height="535" viewBox="0 0 1240 535" fill="none" xmlns="http://www.w3.org/2000/svg">
<g opacity="0.6">
<path fill-rule="evenodd" clip-rule="evenodd" d="M-967.641 852.863C-1008.54 842.367 -1051.77 857.096 -1077.8 890.398L-1244.33 1103.47C-1291.03 1163.23 -1262.14 1251.35 -1189.16 1271.75L685.912 1795.87C742.28 1811.62 800.767 1778.81 816.802 1722.44L896.008 1444.02C912.41 1386.36 878.097 1326.51 820.111 1311.63L-967.641 852.863ZM-963.332 940.972C-964.653 940.633 -966.021 940.507 -967.383 940.597C-981.937 941.57 -983.894 962.219 -969.781 965.916L-525.002 1082.43C-521.831 1083.26 -518.469 1082.94 -515.504 1081.54C-503.671 1075.95 -505.322 1058.59 -517.997 1055.34L-963.332 940.972ZM-1010.63 1012.55C-1009.56 1012.54 -1008.48 1012.67 -1007.44 1012.92L-434.698 1152.86C-421.118 1156.18 -420.267 1175.19 -433.496 1179.72C-436.036 1180.58 -438.772 1180.7 -441.377 1180.05L-1013.59 1037.95C-1028.25 1034.31 -1025.74 1012.72 -1010.63 1012.55ZM-1066.37 1087.93C-1067.72 1087.61 -1069.12 1087.51 -1070.51 1087.63C-1084.99 1088.94 -1086.52 1109.53 -1072.4 1112.98L-635.909 1219.58C-632.668 1220.37 -629.251 1219.98 -626.276 1218.47C-614.684 1212.57 -616.712 1195.4 -629.357 1192.38L-1066.37 1087.93Z" fill="white"/>
<path fill-rule="evenodd" clip-rule="evenodd" d="M1616.54 1285.09C1574.66 1279.74 1533.58 1299.72 1511.87 1335.99L1372.96 1568.07C1334 1633.16 1373.56 1717.02 1448.5 1728.22L3373.93 2015.82C3431.81 2024.47 3485.8 1984.66 3494.74 1926.74L3538.92 1640.63C3548.07 1581.38 3506.63 1526.24 3447.25 1518.67L1616.54 1285.09ZM1631.71 1371.99C1630.36 1371.81 1628.98 1371.86 1627.64 1372.12C1613.32 1374.88 1613.93 1395.62 1628.39 1397.54L2084.15 1458C2087.4 1458.44 2090.7 1457.71 2093.47 1455.95C2104.52 1448.93 2100.73 1431.91 2087.75 1430.25L1631.71 1371.99ZM1593.62 1448.88C1594.68 1448.74 1595.77 1448.72 1596.83 1448.85L2182.47 1516.7C2196.35 1518.31 2199.55 1537.07 2186.98 1543.2C2184.57 1544.38 2181.86 1544.83 2179.2 1544.51L1593.83 1474.45C1578.83 1472.66 1578.65 1450.92 1593.62 1448.88ZM1547.63 1530.59C1546.25 1530.43 1544.84 1530.51 1543.48 1530.8C1529.28 1533.9 1530.3 1554.52 1544.74 1556.19L1991.05 1607.86C1994.36 1608.24 1997.71 1607.42 2000.47 1605.55C2011.25 1598.27 2007.11 1581.48 1994.19 1580.05L1547.63 1530.59Z" fill="white"/>
<path fill-rule="evenodd" clip-rule="evenodd" d="M-608.649 300.219C-649.552 289.723 -692.782 304.453 -718.808 337.754L-885.333 550.826C-932.038 610.587 -903.151 698.703 -830.166 719.104L1044.9 1243.22C1101.27 1258.98 1159.76 1226.17 1175.79 1169.8L1255 891.374C1271.4 833.716 1237.09 773.862 1179.1 758.982L-608.649 300.219ZM-604.339 388.329C-605.661 387.989 -607.029 387.863 -608.39 387.954C-622.945 388.926 -624.901 409.576 -610.789 413.272L-166.01 529.783C-162.838 530.613 -159.476 530.301 -156.512 528.9C-144.679 523.306 -146.33 505.948 -159.005 502.693L-604.339 388.329ZM-651.642 459.911C-650.566 459.899 -649.492 460.022 -648.447 460.277L-75.7061 600.214C-62.1261 603.531 -61.2748 622.55 -74.5038 627.072C-77.0439 627.94 -79.7798 628.058 -82.3849 627.411L-654.594 485.311C-669.256 481.67 -666.747 460.081 -651.642 459.911ZM-707.374 535.287C-708.73 534.963 -710.131 534.862 -711.52 534.988C-725.994 536.301 -727.527 556.885 -713.407 560.333L-276.916 666.939C-273.675 667.73 -270.258 667.334 -267.284 665.822C-255.692 659.927 -257.719 642.761 -270.364 639.739L-707.374 535.287Z" fill="white"/>
<path fill-rule="evenodd" clip-rule="evenodd" d="M1904.47 692.185C1862.58 686.841 1821.5 706.817 1799.79 743.089L1660.89 975.168C1621.93 1040.26 1661.48 1124.12 1736.43 1135.31L3661.86 1422.92C3719.74 1431.56 3773.72 1391.76 3782.66 1333.83L3826.85 1047.73C3836 988.479 3794.55 933.341 3735.17 925.764L1904.47 692.185ZM1919.63 779.082C1918.28 778.909 1916.91 778.953 1915.57 779.212C1901.25 781.982 1901.86 802.715 1916.32 804.634L2372.08 865.102C2375.33 865.533 2378.62 864.806 2381.39 863.048C2392.44 856.03 2388.66 839.01 2375.68 837.352L1919.63 779.082ZM1881.54 855.978C1882.61 855.833 1883.69 855.822 1884.76 855.946L2470.39 923.794C2484.28 925.403 2487.47 944.17 2474.9 950.297C2472.49 951.474 2469.79 951.93 2467.12 951.611L1881.75 881.549C1866.75 879.754 1866.58 858.02 1881.54 855.978ZM1835.56 937.685C1834.17 937.531 1832.77 937.604 1831.41 937.902C1817.2 940.999 1818.23 961.615 1832.67 963.286L2278.97 1014.95C2282.29 1015.34 2285.63 1014.52 2288.4 1012.65C2299.17 1005.36 2295.04 988.582 2282.11 987.15L1835.56 937.685Z" fill="white"/>
<path fill-rule="evenodd" clip-rule="evenodd" d="M-249.656 -252.424C-290.56 -262.921 -333.789 -248.191 -359.816 -214.89L-526.34 -1.81775C-573.046 57.9431 -544.159 146.06 -471.174 166.46L1403.9 690.578C1460.26 706.334 1518.75 673.526 1534.79 617.157L1613.99 338.73C1630.39 281.072 1596.08 221.219 1538.1 206.339L-249.656 -252.424ZM-245.347 -164.315C-246.669 -164.654 -248.036 -164.781 -249.398 -164.69C-263.952 -163.717 -265.909 -143.068 -251.796 -139.371L192.983 -22.8611C196.154 -22.0304 199.516 -22.343 202.48 -23.7443C214.314 -29.338 212.663 -46.6957 199.987 -49.9508L-245.347 -164.315ZM-292.649 -92.733C-291.573 -92.7451 -290.5 -92.6221 -289.455 -92.3667L283.286 47.5696C296.866 50.8876 297.718 69.9066 284.489 74.4283C281.948 75.2966 279.213 75.4142 276.608 74.7672L-295.602 -67.3329C-310.264 -70.974 -307.754 -92.5631 -292.649 -92.733ZM-348.381 -17.3568C-349.738 -17.681 -351.138 -17.7821 -352.527 -17.6561C-367.002 -16.3433 -368.535 4.24097 -354.414 7.68958L82.0763 114.295C85.3173 115.087 88.7343 114.69 91.7089 113.178C103.301 107.284 101.273 90.1174 88.6279 87.095L-348.381 -17.3568Z" fill="white"/>
<path fill-rule="evenodd" clip-rule="evenodd" d="M2192.39 99.2822C2150.51 93.938 2109.43 113.914 2087.72 150.187L1948.81 382.266C1909.85 447.358 1949.41 531.215 2024.35 542.41L3949.78 830.015C4007.66 838.661 4061.65 798.854 4070.59 740.931L4114.77 454.825C4123.92 395.577 4082.48 340.438 4023.1 332.862L2192.39 99.2822ZM2207.56 186.18C2206.21 186.007 2204.83 186.051 2203.49 186.31C2189.17 189.079 2189.78 209.812 2204.24 211.731L2660 272.199C2663.25 272.63 2666.55 271.903 2669.32 270.145C2680.37 263.127 2676.58 246.108 2663.6 244.449L2207.56 186.18ZM2169.47 263.076C2170.53 262.93 2171.61 262.919 2172.68 263.043L2758.31 330.892C2772.2 332.5 2775.4 351.268 2762.83 357.395C2760.41 358.571 2757.71 359.027 2755.05 358.708L2169.68 288.647C2154.68 286.851 2154.5 265.117 2169.47 263.076ZM2123.48 344.782C2122.09 344.629 2120.69 344.702 2119.33 344.999C2105.13 348.097 2106.15 368.712 2120.59 370.384L2566.9 422.051C2570.21 422.435 2573.55 421.618 2576.32 419.748C2587.09 412.462 2582.96 395.679 2570.04 394.248L2123.48 344.782Z" fill="white"/>
<path fill-rule="evenodd" clip-rule="evenodd" d="M109.336 -805.068C68.4329 -815.564 25.2032 -800.835 -0.823364 -767.533L-167.348 -554.461C-214.053 -494.701 -185.166 -406.584 -112.181 -386.183L1762.89 137.935C1819.26 153.69 1877.74 120.883 1893.78 64.5135L1972.98 -213.914C1989.39 -271.572 1955.07 -331.425 1897.09 -346.305L109.336 -805.068ZM113.646 -716.958C112.324 -717.298 110.956 -717.425 109.595 -717.334C95.0399 -716.361 93.0836 -695.712 107.196 -692.015L551.975 -575.505C555.147 -574.674 558.508 -574.987 561.473 -576.388C573.306 -581.982 571.655 -599.339 558.98 -602.594L113.646 -716.958ZM66.3433 -645.377C67.4193 -645.389 68.4924 -645.266 69.5378 -645.01L642.279 -505.074C655.859 -501.756 656.71 -482.737 643.481 -478.215C640.941 -477.347 638.205 -477.229 635.6 -477.876L63.3906 -619.977C48.7286 -623.618 51.2383 -645.207 66.3433 -645.377ZM10.6111 -570C9.25452 -570.325 7.85437 -570.426 6.46533 -570.3C-8.00952 -568.987 -9.54211 -548.403 4.57812 -544.954L441.069 -438.349C444.31 -437.557 447.727 -437.953 450.701 -439.466C462.293 -445.36 460.266 -462.526 447.62 -465.549L10.6111 -570Z" fill="white"/>
<path fill-rule="evenodd" clip-rule="evenodd" d="M375.257 -1397.66C334.353 -1408.16 291.124 -1393.43 265.097 -1360.13L98.5724 -1147.06C51.8668 -1087.29 80.7543 -999.178 153.739 -978.777L2028.81 -454.659C2085.18 -438.904 2143.66 -471.711 2159.7 -528.08L2238.91 -806.507C2255.31 -864.165 2221 -924.019 2163.01 -938.899L375.257 -1397.66ZM379.566 -1309.55C378.244 -1309.89 376.877 -1310.02 375.515 -1309.93C360.96 -1308.96 359.004 -1288.31 373.116 -1284.61L817.896 -1168.1C821.067 -1167.27 824.429 -1167.58 827.393 -1168.98C839.227 -1174.58 837.576 -1191.93 824.9 -1195.19L379.566 -1309.55ZM332.264 -1237.97C333.34 -1237.98 334.413 -1237.86 335.458 -1237.6L908.199 -1097.67C921.779 -1094.35 922.631 -1075.33 909.402 -1070.81C906.862 -1069.94 904.125 -1069.82 901.521 -1070.47L329.311 -1212.57C314.649 -1216.21 317.159 -1237.8 332.264 -1237.97ZM276.531 -1162.59C275.175 -1162.92 273.775 -1163.02 272.386 -1162.89C257.911 -1161.58 256.378 -1141 270.498 -1137.55L706.989 -1030.94C710.23 -1030.15 713.647 -1030.55 716.621 -1032.06C728.213 -1037.95 726.186 -1055.12 713.541 -1058.14L276.531 -1162.59Z" fill="white"/>
<path fill-rule="evenodd" clip-rule="evenodd" d="M2480.32 -493.62C2438.43 -498.964 2397.35 -478.988 2375.64 -442.716L2236.74 -210.637C2197.78 -145.545 2237.33 -61.6876 2312.28 -50.4929L4237.71 237.113C4295.59 245.759 4349.57 205.952 4358.52 148.028L4402.7 -138.078C4411.85 -197.326 4370.4 -252.464 4311.02 -260.041L2480.32 -493.62ZM2495.48 -406.723C2494.13 -406.896 2492.76 -406.852 2491.42 -406.593C2477.09 -403.823 2477.71 -383.09 2492.17 -381.171L2947.92 -320.703C2951.17 -320.272 2954.47 -320.999 2957.24 -322.757C2968.29 -329.775 2964.51 -346.795 2951.53 -348.453L2495.48 -406.723ZM2457.39 -329.827C2458.46 -329.972 2459.54 -329.983 2460.61 -329.859L3046.24 -262.01C3060.12 -260.402 3063.32 -241.635 3050.75 -235.508C3048.34 -234.331 3045.64 -233.875 3042.97 -234.194L2457.6 -304.256C2442.6 -306.051 2442.42 -327.785 2457.39 -329.827ZM2411.4 -248.12C2410.02 -248.274 2408.62 -248.2 2407.25 -247.903C2393.05 -244.806 2394.08 -224.19 2408.51 -222.519L2854.82 -170.851C2858.14 -170.468 2861.48 -171.285 2864.24 -173.154C2875.02 -180.44 2870.88 -197.223 2857.96 -198.655L2411.4 -248.12Z" fill="white"/>
<path fill-rule="evenodd" clip-rule="evenodd" d="M2753.35 -1046.26C2711.47 -1051.61 2670.39 -1031.63 2648.68 -995.36L2509.77 -763.28C2470.81 -698.188 2510.37 -614.331 2585.31 -603.137L4510.74 -315.531C4568.62 -306.885 4622.61 -346.692 4631.55 -404.615L4675.73 -690.721C4684.88 -749.969 4643.44 -805.108 4584.06 -812.684L2753.35 -1046.26ZM2768.52 -959.367C2767.17 -959.54 2765.79 -959.496 2764.45 -959.237C2750.13 -956.467 2750.74 -935.734 2765.2 -933.815L3220.96 -873.347C3224.21 -872.916 3227.51 -873.643 3230.28 -875.401C3241.33 -882.419 3237.54 -899.439 3224.56 -901.097L2768.52 -959.367ZM2730.43 -882.471C2731.49 -882.616 2732.57 -882.627 2733.64 -882.503L3319.28 -814.654C3333.16 -813.046 3336.36 -794.279 3323.79 -788.152C3321.38 -786.975 3318.67 -786.519 3316.01 -786.838L2730.64 -856.9C2715.64 -858.695 2715.46 -880.429 2730.43 -882.471ZM2684.44 -800.764C2683.06 -800.918 2681.65 -800.844 2680.29 -800.547C2666.09 -797.45 2667.11 -776.834 2681.55 -775.163L3127.86 -723.495C3131.17 -723.112 3134.52 -723.929 3137.28 -725.798C3148.05 -733.084 3143.92 -749.867 3131 -751.299L2684.44 -800.764Z" fill="white"/>
</g>
</svg>
