<svg width="22" height="22" viewBox="0 0 22 22" fill="none" xmlns="http://www.w3.org/2000/svg">
<path d="M10.9992 1.79041C5.93658 1.79041 1.84971 5.89432 1.83257 10.9571C1.81543 16.0125 5.9408 20.1421 10.9992 20.1521C16.0577 20.1622 20.175 15.9767 20.1659 10.9571C20.1567 5.89432 16.0618 1.79041 10.9992 1.79041ZM10.9992 3.62374C15.0493 3.62374 18.3325 6.90723 18.3326 10.9571C18.3326 13.0196 17.4735 14.8786 16.1031 16.2114C15.428 14.7511 13.9779 13.7071 12.3169 13.7071C11.9875 13.7071 10.0108 13.7071 9.68153 13.7071C8.02154 13.7071 6.57568 14.7383 5.90028 16.1995C4.52986 14.8666 3.66591 13.0196 3.66591 10.9571C3.66591 6.90723 6.94913 3.62374 10.9992 3.62374ZM10.9992 5.45707C8.97414 5.45707 7.33248 7.09882 7.33257 9.12373C7.33257 11.1486 8.97414 12.7904 10.9992 12.7904C13.0242 12.7904 14.666 11.1486 14.6659 9.12373C14.6659 7.09882 13.0242 5.45707 10.9992 5.45707Z" fill="#6B7280"/>
</svg>
