<svg width="24" height="24" viewBox="0 0 24 24" fill="none" xmlns="http://www.w3.org/2000/svg">
<path d="M23 12C23 18.0751 18.0751 23 12 23C5.92487 23 1 18.0751 1 12C1 5.92487 5.92487 1 12 1C18.0751 1 23 5.92487 23 12ZM3.2 12C3.2 16.8601 7.13989 20.8 12 20.8C16.8601 20.8 20.8 16.8601 20.8 12C20.8 7.13989 16.8601 3.2 12 3.2C7.13989 3.2 3.2 7.13989 3.2 12Z" fill="#008F5D"/>
<path d="M19.3333 12C19.3333 16.0501 16.0501 19.3333 12 19.3333C7.94991 19.3333 4.66667 16.0501 4.66667 12C4.66667 7.94991 7.94991 4.66667 12 4.66667C16.0501 4.66667 19.3333 7.94991 19.3333 12Z" fill="#008F5D"/>
</svg>
