<svg width="22" height="22" viewBox="0 0 22 22" fill="none" xmlns="http://www.w3.org/2000/svg">
<path d="M9.17952 1.79041C5.12942 1.79041 1.84619 5.07391 1.84619 9.12375C1.84619 13.1736 5.12942 16.4571 9.17952 16.4571C10.8632 16.4571 12.459 15.8787 13.6968 14.9254L17.6873 18.9495C18.0453 19.307 18.647 19.307 19.0051 18.9495C19.3631 18.5911 19.3631 17.9898 19.0051 17.6314L14.9869 13.6347C15.9409 12.3972 16.5129 10.8077 16.5129 9.12375C16.5129 5.07391 13.2296 1.79041 9.17952 1.79041ZM9.17952 3.62374C12.2171 3.62374 14.6795 6.08591 14.6795 9.12375C14.6795 12.1616 12.2171 14.6238 9.17952 14.6238C6.14197 14.6238 3.67952 12.1616 3.67952 9.12375C3.67952 6.08591 6.14197 3.62374 9.17952 3.62374Z" fill="#6B7280"/>
</svg>
