<svg width="20" height="20" viewBox="0 0 20 20" fill="none" xmlns="http://www.w3.org/2000/svg">
<path d="M9.99909 1.62764C5.39676 1.62764 1.66576 5.35847 1.66576 9.96097C1.66576 14.5635 5.39676 18.2943 9.99909 18.2943C14.6016 18.2943 18.3324 14.5635 18.3324 9.96097C18.3324 5.35847 14.6016 1.62764 9.99909 1.62764ZM7.49909 6.62764C7.71226 6.62764 7.93534 6.69931 8.09809 6.86181L9.99909 8.76264L11.8999 6.86181C12.0633 6.69931 12.2858 6.62764 12.4991 6.62764C12.7124 6.62764 12.9349 6.69931 13.0983 6.86181C13.4233 7.18764 13.4233 7.7343 13.0983 8.06014L11.1974 9.96097L13.0983 11.8618C13.4233 12.1876 13.4233 12.7343 13.0983 13.0601C12.7724 13.3851 12.2258 13.3851 11.8999 13.0601L9.99909 11.1593L8.09809 13.0601C7.77267 13.3851 7.22559 13.3851 6.90009 13.0601C6.57467 12.7343 6.57467 12.1876 6.90009 11.8618L8.80075 9.96097L6.90009 8.06014C6.57467 7.7343 6.57467 7.18764 6.90009 6.86181C7.06292 6.69931 7.28584 6.62764 7.49909 6.62764Z" fill="#9CA3AF"/>
</svg>
