<svg width="28" height="28" viewBox="0 0 28 28" fill="none" xmlns="http://www.w3.org/2000/svg">
<path d="M8.16471 3.48828C5.58754 3.48828 3.49805 5.57778 3.49805 8.15495V18.6549V19.8216C3.49805 22.3988 5.58754 24.4883 8.16471 24.4883H19.8314C22.4085 24.4883 24.498 22.3988 24.498 19.8216V18.6549V8.15495C24.498 5.57778 22.4085 3.48828 19.8314 3.48828H8.16471ZM8.16471 5.82161H19.8314C21.1205 5.82161 22.1647 6.86578 22.1647 8.15495L22.1694 15.3836C21.2617 14.5413 20.3365 14.0139 19.3204 13.9883C19.2842 13.9871 19.2854 13.9883 19.248 13.9883C17.9215 13.9883 16.4469 15.0079 15.4564 16.2854C15.2032 15.7138 14.9477 15.1491 14.6537 14.6078C13.277 12.0656 11.7732 10.4918 9.91471 10.4883C8.33504 10.4848 6.97938 11.7763 5.82205 13.5449L5.83138 8.15495C5.83138 6.86578 6.87554 5.82161 8.16471 5.82161ZM18.6647 8.15495C18.0207 8.15495 17.498 8.67761 17.498 9.32161C17.498 9.96561 18.0207 10.4883 18.6647 10.4883C19.3087 10.4883 19.8314 9.96561 19.8314 9.32161C19.8314 8.67761 19.3087 8.15495 18.6647 8.15495ZM9.91471 12.8216C10.5937 12.8228 11.6251 13.8798 12.612 15.7021C13.004 16.4231 13.3552 17.2176 13.6702 17.9993C13.8592 18.4659 14.005 18.823 14.0704 19.019C14.3889 19.9721 15.6815 20.1074 16.1855 19.2383C16.2357 19.1519 16.3267 18.9863 16.4772 18.7646C16.7292 18.3913 17.0162 18.0133 17.316 17.6703C18.065 16.8116 18.7872 16.3216 19.248 16.3216C19.7135 16.3333 20.4322 16.8221 21.18 17.6703C21.4834 18.0145 21.7634 18.3913 22.0189 18.7646C22.0994 18.8813 22.111 18.9361 22.1647 19.019V19.8216C22.1647 21.1108 21.1205 22.1549 19.8314 22.1549H8.16471C6.87554 22.1549 5.83138 21.1108 5.83138 19.8216V18.837C5.90488 18.6293 6.00288 18.3831 6.15922 17.9993C6.47772 17.2176 6.82303 16.4243 7.21736 15.7021C8.21253 13.8763 9.23687 12.8204 9.91471 12.8216Z" fill="#DAAE00"/>
</svg>
