<svg width="14" height="14" viewBox="0 0 14 14" fill="none" xmlns="http://www.w3.org/2000/svg">
<path d="M7.01396 1.42413C6.68093 1.42402 6.34085 1.63122 6.13942 2.04364L4.90048 4.59438L2.07645 4.99519C1.16826 5.12154 0.874022 6.01252 1.52986 6.65302L3.57042 8.63927L3.09676 11.427C2.94077 12.3294 3.68925 12.8749 4.49967 12.4473C4.81281 12.2816 6.42286 11.4474 7.01396 11.1354L9.52824 12.4473C10.3396 12.8749 11.0904 12.33 10.9312 11.427L10.4392 8.63927L12.4798 6.65302C13.1388 6.01485 12.8597 5.1241 11.9515 4.99519L9.10923 4.59438L7.88849 2.04364C7.68736 1.63104 7.34698 1.42431 7.01396 1.42413Z" fill="#677383"/>
</svg>
